<?xml version="1.0" encoding="utf-8"?>
<!-- Generator: Adobe Illustrator 24.0.1, SVG Export Plug-In . SVG Version: 6.00 Build 0)  -->
<svg version="1.1" id="Layer_1" xmlns="http://www.w3.org/2000/svg" xmlns:xlink="http://www.w3.org/1999/xlink" x="0px" y="0px"
	 viewBox="0 0 126.27 126.27" style="enable-background:new 0 0 126.27 126.27;" xml:space="preserve">
<style type="text/css">
	.st0{fill:#FA7D7D;stroke:#241F20;stroke-width:5;stroke-miterlimit:10;}
	.st1{fill:none;stroke:#241F20;stroke-width:5;stroke-miterlimit:10;}
</style>
<g>
	<circle class="st0" cx="63.13" cy="63.13" r="59.88"/>
	<g>
		<path class="st1" d="M51.52,83.84c-1.05,0.26-2.13,0.4-3.2,0.59c-0.09,0.02-0.19,0.03-0.29,0.03h-2.67
			c-0.15,0-0.29-0.02-0.43-0.06c-0.21-0.06-0.42-0.12-0.64-0.15c-9.85-1.06-17.6-8.83-18.7-18.75c-1.38-12.51,7.97-23.28,20.57-23.7
			c11.53-0.38,21.54,9.13,21.76,20.69C68.12,72.75,61.47,81.42,51.52,83.84z M88.94,75.57c-0.24,0.6-0.51,1.19-0.8,1.76
			c-3.12,6.04-11.78,6-15.02,0.02c-1.01-1.85-1.66-3.89-2.13-6.01c-0.52-2.31-0.74-4.68-0.95-6.12c-0.01-0.08-0.02-0.15-0.02-0.23
			c-0.04-6.09,0.6-11.08,2.97-15.68c0.74-1.44,1.71-2.82,2.84-3.98c3.08-3.14,6.98-2.99,9.96,0.26c2.74,2.99,4.03,6.65,4.77,10.53
			C91.8,62.75,91.5,69.27,88.94,75.57z M100.05,73.64c-0.34,1.97-0.88,3.92-1.51,5.82c-0.03,0.09-0.07,0.17-0.12,0.25
			c-0.59,0.97-2.07,0.94-2.71,0c-0.07-0.11-0.13-0.22-0.17-0.33c-0.63-1.9-1.23-3.85-1.49-5.83c-1.01-7.79-1.1-15.58,0.44-23.32
			c0.27-1.34,0.78-2.65,1.32-3.91c0.2-0.46,0.83-1,1.26-1s1.1,0.56,1.24,1.01c0.66,2.07,1.33,4.15,1.7,6.28
			c0.42,2.39,0.53,4.83,0.77,7.25c0,2.37,0,4.73-0.01,7.1C100.57,69.19,100.43,71.43,100.05,73.64z"/>
	</g>
</g>
</svg>
