<?xml version="1.0" encoding="utf-8"?>
<!-- Generator: Adobe Illustrator 24.0.1, SVG Export Plug-In . SVG Version: 6.00 Build 0)  -->
<svg version="1.1" id="Layer_1" xmlns="http://www.w3.org/2000/svg" xmlns:xlink="http://www.w3.org/1999/xlink" x="0px" y="0px"
	 viewBox="0 0 125.36 125.36" style="enable-background:new 0 0 125.36 125.36;" xml:space="preserve">
<style type="text/css">
	.st0{fill:#FA7D7D;}
	.st1{fill:#241F20;}
</style>
<g>
	<path class="st0" d="M62.68,5.29c-31.64,0-57.39,25.74-57.39,57.38s25.74,57.38,57.39,57.38c31.64,0,57.38-25.74,57.38-57.38
		S94.32,5.29,62.68,5.29z M98.95,82.92c0,0.11-0.01,0.21-0.02,0.32c0.04,0.36-0.01,0.73-0.14,1.08c-0.64,2.92-3.24,5.11-6.35,5.11
		H32.91c-3.11,0-5.71-2.19-6.35-5.11c-0.12-0.35-0.17-0.72-0.14-1.08c-0.01-0.1-0.02-0.21-0.02-0.31V43.29
		c0-0.11,0.01-0.21,0.02-0.32c-0.04-0.36,0.01-0.72,0.14-1.07c0.64-2.92,3.24-5.11,6.35-5.11h59.53c3.11,0,5.71,2.19,6.35,5.11
		c0.12,0.35,0.17,0.71,0.14,1.07c0.01,0.11,0.02,0.21,0.02,0.32V82.92z"/>
	<path class="st1" d="M62.68,0.29c-34.4,0-62.39,27.99-62.39,62.38s27.99,62.38,62.39,62.38c34.4,0,62.38-27.99,62.38-62.38
		S97.08,0.29,62.68,0.29z M62.68,120.06c-31.64,0-57.39-25.74-57.39-57.38S31.04,5.29,62.68,5.29c31.64,0,57.38,25.74,57.38,57.38
		S94.32,120.06,62.68,120.06z"/>
	<path class="st1" d="M26.43,42.97c0.02-0.37,0.06-0.73,0.14-1.07C26.44,42.25,26.39,42.61,26.43,42.97z"/>
	<path class="st1" d="M28.91,42.73l0.05,0.04c0-0.01,0-0.03,0-0.04H28.91z"/>
	<path class="st1" d="M26.57,84.31c-0.08-0.35-0.12-0.71-0.14-1.08C26.39,83.59,26.44,83.96,26.57,84.31z"/>
	<path class="st1" d="M98.93,42.97c0.04-0.36-0.01-0.72-0.14-1.07c-0.64-2.92-3.24-5.11-6.35-5.11H32.91
		c-3.11,0-5.71,2.19-6.35,5.11c-0.08,0.35-0.12,0.71-0.14,1.07c-0.01,0.11-0.02,0.21-0.02,0.32v39.63c0,0.11,0.01,0.21,0.02,0.31
		c0.02,0.37,0.06,0.73,0.14,1.08c0.64,2.92,3.24,5.11,6.35,5.11h59.53c3.11,0,5.71-2.19,6.35-5.11c0.12-0.35,0.17-0.72,0.14-1.08
		c0.01-0.11,0.02-0.21,0.02-0.32V43.29C98.95,43.18,98.94,43.08,98.93,42.97z M32.91,41.79h59.53c0.31,0,0.6,0.09,0.84,0.26
		l-0.87,0.69l-27.09,21.4c-1.7,0.65-3.59,0.65-5.28,0l-27.09-21.4l-0.87-0.69C32.32,41.88,32.6,41.79,32.91,41.79z M28.96,42.77
		l-0.05-0.04h0.06C28.97,42.74,28.97,42.75,28.96,42.77z M31.41,47.89L50.67,63.1L31.41,78.32V47.89z M92.45,84.42H32.91
		c-0.31,0-0.6-0.09-0.83-0.25l22.63-17.87l2.51,1.98c0.17,0.14,0.36,0.25,0.56,0.33c1.56,0.67,3.23,1.01,4.9,1.01
		c1.67,0,3.34-0.33,4.9-1.01c0.2-0.09,0.39-0.2,0.56-0.33l2.51-1.98l22.63,17.87C93.04,84.32,92.76,84.42,92.45,84.42z M93.95,78.32
		L74.68,63.1l19.26-15.21V78.32z"/>
</g>
</svg>
