<svg id="Layer_1" data-name="Layer 1" xmlns="http://www.w3.org/2000/svg" viewBox="0 0 125.77 125.77"><defs><style>.cls-1{fill:#fa7d7d;}.cls-2{fill:#241f20;}.cls-3{fill:#231f20;}</style></defs><title>icons</title><path class="cls-1" d="M62.88,6a56.89,56.89,0,1,0,56.89,56.88A56.95,56.95,0,0,0,62.88,6ZM94.22,83.55c-3.12,0-5.38-2.75-6.85-6.75-2.28,4.7-5.7,7.66-9.6,7.66-4.49,0-8.35-3.92-10.54-9.91a23.85,23.85,0,1,1,0-23.34c2.19-6,6-9.9,10.54-9.9,3.9,0,7.32,3,9.6,7.66,1.47-4,3.73-6.75,6.85-6.75,6.16,0,9,10.71,9,20.66S100.38,83.55,94.22,83.55Z"/><path class="cls-2" d="M62.88,0a62.89,62.89,0,1,0,62.89,62.88A63,63,0,0,0,62.88,0Zm0,122.77a59.89,59.89,0,1,1,59.89-59.89A59.88,59.88,0,0,1,62.88,122.77Z"/><path class="cls-2" d="M62.88,3a59.89,59.89,0,1,0,59.89,59.88A59.88,59.88,0,0,0,62.88,3Zm0,116.77a56.89,56.89,0,1,1,56.89-56.89A57,57,0,0,1,62.88,119.77Z"/><path class="cls-3" d="M46.44,84.24A21.36,21.36,0,1,1,66.18,54.77a30.25,30.25,0,0,1,1-3.56,23.86,23.86,0,1,0,0,23.34,29.53,29.53,0,0,1-1-3.55A21.34,21.34,0,0,1,46.44,84.24Z"/><path class="cls-3" d="M46.44,81.74A18.86,18.86,0,1,1,65.29,62.88a36.51,36.51,0,0,1,.89-8.11,21.36,21.36,0,1,0,0,16.23,36.53,36.53,0,0,1-.89-8.12A18.88,18.88,0,0,1,46.44,81.74Z"/><path class="cls-3" d="M77.77,82c-4,0-7.36-4.4-9-10.77a23.39,23.39,0,0,1-1.57,3.36c2.19,6,6,9.91,10.54,9.91,3.9,0,7.32-3,9.6-7.66a28.08,28.08,0,0,1-1.12-3.91C84.49,78.32,81.36,82,77.77,82Z"/><path class="cls-3" d="M77.77,43.81c3.59,0,6.72,3.64,8.48,9.07A28.08,28.08,0,0,1,87.37,49c-2.28-4.7-5.7-7.66-9.6-7.66-4.49,0-8.35,3.92-10.54,9.9a24,24,0,0,1,1.57,3.37C70.41,48.21,73.82,43.81,77.77,43.81Z"/><path class="cls-3" d="M67.79,62.88a33.76,33.76,0,0,1,1-8.3,24,24,0,0,0-1.57-3.37,30.25,30.25,0,0,0-1,3.56A21.07,21.07,0,0,1,67.79,62.88Z"/><path class="cls-3" d="M67.79,62.88A21.08,21.08,0,0,1,66.18,71a29.53,29.53,0,0,0,1,3.55,23.39,23.39,0,0,0,1.57-3.36A33.78,33.78,0,0,1,67.79,62.88Z"/><path class="cls-3" d="M65.29,62.88A36.53,36.53,0,0,0,66.18,71a21.26,21.26,0,0,0,0-16.23A36.51,36.51,0,0,0,65.29,62.88Z"/><path class="cls-3" d="M77.77,46.31c3.53,0,7.47,7.09,7.47,16.57a48,48,0,0,1,1-10c-1.76-5.43-4.89-9.07-8.48-9.07-4,0-7.36,4.4-9,10.77a23.85,23.85,0,0,1,1.49,8.3C70.29,53.4,74.24,46.31,77.77,46.31Z"/><path class="cls-3" d="M77.77,79.46c-3.53,0-7.48-7.09-7.48-16.58a23.87,23.87,0,0,1-1.49,8.31c1.61,6.37,5,10.77,9,10.77,3.59,0,6.72-3.64,8.48-9.07a48,48,0,0,1-1-10C85.24,72.37,81.3,79.46,77.77,79.46Z"/><path class="cls-3" d="M68.8,54.58a34.65,34.65,0,0,0,0,16.61,23.89,23.89,0,0,0,0-16.61Z"/><path class="cls-3" d="M94.22,42.22c-3.12,0-5.38,2.75-6.85,6.75a26.07,26.07,0,0,1,1.46,3.83C90,47.93,92,44.72,94.22,44.72c3.57,0,6.47,8.13,6.47,18.16s-2.9,18.17-6.47,18.17C92,81.05,90,77.84,88.83,73a26.07,26.07,0,0,1-1.46,3.83c1.47,4,3.73,6.75,6.85,6.75,6.16,0,9-10.71,9-20.67S100.38,42.22,94.22,42.22Z"/><path class="cls-3" d="M87.74,62.88A44.65,44.65,0,0,1,88.83,52.8,26.07,26.07,0,0,0,87.37,49a28.08,28.08,0,0,0-1.12,3.91A32.84,32.84,0,0,1,87.74,62.88Z"/><path class="cls-3" d="M87.74,62.88a32.86,32.86,0,0,1-1.49,10,28.08,28.08,0,0,0,1.12,3.91A26.07,26.07,0,0,0,88.83,73,44.67,44.67,0,0,1,87.74,62.88Z"/><path class="cls-3" d="M85.24,62.88a48,48,0,0,0,1,10,34.34,34.34,0,0,0,0-20A48,48,0,0,0,85.24,62.88Z"/><path class="cls-3" d="M94.19,47.22c1.1.27,4,5.49,4,15.66s-2.9,15.4-4,15.67c-1.1-.27-4-5.49-4-15.67A35.24,35.24,0,0,1,88.83,73C90,77.84,92,81.05,94.22,81.05c3.57,0,6.47-8.13,6.47-18.17s-2.9-18.16-6.47-18.16c-2.25,0-4.22,3.21-5.39,8.08a35.22,35.22,0,0,1,1.41,10.08C90.24,52.71,93.14,47.49,94.19,47.22Z"/><path class="cls-3" d="M88.83,73a36.77,36.77,0,0,0,0-20.17,47.2,47.2,0,0,0,0,20.17Z"/></svg>