<svg id="Layer_1" data-name="Layer 1" xmlns="http://www.w3.org/2000/svg" viewBox="0 0 125.77 125.77"><defs><style>.cls-1{fill:#fa7d7d;}.cls-2{fill:#241f20;}</style></defs><title>icons</title><path class="cls-1" d="M62.88,6a56.89,56.89,0,1,0,56.89,56.88A56.95,56.95,0,0,0,62.88,6ZM99.15,83.12a6.5,6.5,0,0,1-6.5,6.5H33.12a6.5,6.5,0,0,1-6.5-6.5V43.49a6.51,6.51,0,0,1,6.5-6.5H92.65a6.51,6.51,0,0,1,6.5,6.5Z"/><path class="cls-2" d="M62.88,0a62.89,62.89,0,1,0,62.89,62.88A63,63,0,0,0,62.88,0Zm0,122.77a59.89,59.89,0,1,1,59.89-59.89A59.88,59.88,0,0,1,62.88,122.77Z"/><path class="cls-2" d="M62.88,3a59.89,59.89,0,1,0,59.89,59.88A59.88,59.88,0,0,0,62.88,3Zm0,116.77a56.89,56.89,0,1,1,56.89-56.89A57,57,0,0,1,62.88,119.77Z"/><path class="cls-2" d="M92.65,37H33.12a6.51,6.51,0,0,0-6.5,6.5V83.12a6.5,6.5,0,0,0,6.5,6.5H92.65a6.5,6.5,0,0,0,6.5-6.5V43.49A6.51,6.51,0,0,0,92.65,37ZM98.2,81.72l-3.1,3.92-1.61-1.27a1.51,1.51,0,0,1-.84.25H33.12a1.51,1.51,0,0,1-.84-.25l-1.61,1.27-3.1-3.92,4.05-3.2V48.09L27.57,44.9,30.67,41l1.61,1.28a1.52,1.52,0,0,1,.84-.26H92.65a1.52,1.52,0,0,1,.84.26L95.1,41l3.1,3.93-4,3.19V78.52Z"/><path class="cls-2" d="M53.36,61.35l3.1,3.92-1.55,1.22,2.77,2.19.3.13a12.53,12.53,0,0,0,9.81,0l.3-.13,2.77-2.19-1.55-1.22,3.1-3.92,2.48,2L94.15,48.09v-4.6a1.49,1.49,0,0,0-.66-1.24l-28,22.08a7.42,7.42,0,0,1-5.29,0l-28-22.08a1.49,1.49,0,0,0-.66,1.24v4.6L50.88,63.31Z"/><path class="cls-2" d="M32.28,42.25,30.67,41l-3.1,3.93,4.05,3.19v-4.6A1.49,1.49,0,0,1,32.28,42.25Z"/><path class="cls-2" d="M94.15,43.49v4.6l4-3.19L95.1,41l-1.61,1.28A1.49,1.49,0,0,1,94.15,43.49Z"/><path class="cls-2" d="M50.88,63.31,31.62,78.52v4.6a1.5,1.5,0,0,0,.66,1.25L54.91,66.49Z"/><path class="cls-2" d="M31.62,83.12v-4.6l-4.05,3.2,3.1,3.92,1.61-1.27A1.5,1.5,0,0,1,31.62,83.12Z"/><polygon class="cls-2" points="53.36 61.35 50.88 63.31 54.91 66.49 56.46 65.27 53.36 61.35"/><path class="cls-2" d="M70.86,66.49,93.49,84.37a1.5,1.5,0,0,0,.66-1.25v-4.6L74.89,63.31Z"/><path class="cls-2" d="M93.49,84.37l1.61,1.27,3.1-3.92-4-3.2v4.6A1.5,1.5,0,0,1,93.49,84.37Z"/><polygon class="cls-2" points="69.31 65.27 70.86 66.49 74.89 63.31 72.41 61.35 69.31 65.27"/></svg>