<svg id="Layer_1" data-name="Layer 1" xmlns="http://www.w3.org/2000/svg" viewBox="0 0 125.77 125.77"><defs><style>.cls-1{fill:#fa7d7d;}.cls-2{fill:#241f20;}.cls-3{fill:#231f20;}</style></defs><title>icons</title><path class="cls-1" d="M62.88,6a56.89,56.89,0,1,0,56.89,56.89A57,57,0,0,0,62.88,6ZM94.56,86.06a8.51,8.51,0,0,1-8.5,8.5H39.71a8.51,8.51,0,0,1-8.5-8.5V39.71a8.51,8.51,0,0,1,8.5-8.5H86.06a8.51,8.51,0,0,1,8.5,8.5Z"/><path class="cls-2" d="M62.88,0a62.89,62.89,0,1,0,62.89,62.89A63,63,0,0,0,62.88,0Zm0,122.77a59.89,59.89,0,1,1,59.89-59.89A59.88,59.88,0,0,1,62.88,122.77Z"/><path class="cls-2" d="M62.88,3a59.89,59.89,0,1,0,59.89,59.88A59.88,59.88,0,0,0,62.88,3Zm0,116.77a56.89,56.89,0,1,1,56.89-56.88A56.95,56.95,0,0,1,62.88,119.77Z"/><path class="cls-2" d="M86.06,31.21H39.71a8.51,8.51,0,0,0-8.5,8.5V86.06a8.51,8.51,0,0,0,8.5,8.5H86.06a8.51,8.51,0,0,0,8.5-8.5V39.71A8.51,8.51,0,0,0,86.06,31.21Zm3.5,54.85a3.5,3.5,0,0,1-3.5,3.5H39.71a3.5,3.5,0,0,1-3.5-3.5V39.71a3.5,3.5,0,0,1,3.5-3.5H86.06a3.5,3.5,0,0,1,3.5,3.5Z"/><path class="cls-2" d="M62.88,77.68a14.8,14.8,0,1,1,14.8-14.79A14.81,14.81,0,0,1,62.88,77.68Zm0-24.59a9.8,9.8,0,1,0,9.8,9.8A9.8,9.8,0,0,0,62.88,53.09Z"/><circle class="cls-3" cx="81.18" cy="44.59" r="4.85"/></svg>