<?xml version="1.0" encoding="utf-8"?>
<!-- Generator: Adobe Illustrator 24.0.1, SVG Export Plug-In . SVG Version: 6.00 Build 0)  -->
<svg version="1.1" id="Layer_1" xmlns="http://www.w3.org/2000/svg" xmlns:xlink="http://www.w3.org/1999/xlink" x="0px" y="0px"
	 viewBox="0 0 125.36 125.36" style="enable-background:new 0 0 125.36 125.36;" xml:space="preserve">
<style type="text/css">
	.st0{fill:#FA7D7D;}
	.st1{fill:#241F20;}
</style>
<g>
	<path class="st0" d="M62.68,5.29c-31.64,0-57.39,25.74-57.39,57.38s25.74,57.38,57.39,57.38c31.64,0,57.38-25.74,57.38-57.38
		S94.32,5.29,62.68,5.29z"/>
	<path class="st1" d="M62.68,0.29c-34.4,0-62.39,27.99-62.39,62.38s27.99,62.38,62.39,62.38c34.4,0,62.38-27.99,62.38-62.38
		S97.08,0.29,62.68,0.29z M62.68,120.06c-31.64,0-57.39-25.74-57.39-57.38S31.04,5.29,62.68,5.29c31.64,0,57.38,25.74,57.38,57.38
		S94.32,120.06,62.68,120.06z"/>
	<path class="st1" d="M26.43,42.97c0.02-0.37,0.06-0.73,0.14-1.07C26.44,42.25,26.39,42.61,26.43,42.97z"/>
	<path class="st1" d="M28.91,42.73l0.05,0.04c0-0.01,0-0.03,0-0.04H28.91z"/>
	<path class="st1" d="M26.57,84.31c-0.08-0.35-0.12-0.71-0.14-1.08C26.39,83.59,26.44,83.96,26.57,84.31z"/>
</g>
<g>
	<path class="st1" d="M52.29,61.18c4.34-2.19,6.84-6.17,6.84-11.15c0-10.71-8.85-12.96-16.28-12.96c-1.21,0-4.82,0.07-10.74,0.21
		c-1.69,0.11-2.98,1.45-2.98,3.07v44.24c0,1.67,1.38,3.07,3,3.07c3.03,0.14,6.52,0.21,10.65,0.21C54.36,87.87,61,82.49,61,73.12
		C61,67.17,57.87,62.95,52.29,61.18z M42.93,82.28c-0.66,0-3.16-0.05-7.99-0.24V64.65h8.19c4.51,0,12.06,1.07,12.06,8.26
		C55.2,80.65,48.52,82.28,42.93,82.28z M42.72,42.67c7.14,0,10.61,2.66,10.61,8.12c0,5.07-4.01,8.47-9.99,8.47h-8.4V42.84
		C38.34,42.72,40.89,42.67,42.72,42.67z"/>
	<path class="st1" d="M91.9,58.08c-2.9-2.75-6.53-4.15-10.78-4.15c-5.2,0-9.33,1.65-12.28,4.89c-2.97,3.18-4.48,7.32-4.48,12.29
		c0,5.19,1.59,9.27,4.86,12.47c3.2,3.12,7.46,4.71,12.66,4.71c4.3,0,8.16-1.3,11.47-3.87c0.03-0.03,0.06-0.05,0.09-0.08
		c0.52-0.52,0.78-1.12,0.78-1.81c0-0.62-0.24-1.07-0.49-1.48c-0.03-0.05-0.06-0.09-0.1-0.14c-0.74-0.86-1.57-1.04-2.14-1.04
		c-0.62,0-1.07,0.24-1.48,0.49c-0.02,0.01-0.05,0.03-0.07,0.05c-2.3,1.66-4.94,2.51-7.85,2.51c-6.62,0-11-3.81-11.65-10.03H93.7
		c1.22,0,2.38-1.09,2.45-2.28c0.07-0.43,0.07-0.94,0.07-1.63C96.22,64.47,94.77,60.8,91.9,58.08z M70.31,67.9
		c0.96-5.32,4.88-8.58,10.46-8.58c5.71,0,9.29,3.18,9.74,8.58H70.31z"/>
	<path class="st1" d="M89.31,46.89H71.27c-1.38,0-2.5-1.12-2.5-2.5s1.12-2.5,2.5-2.5h18.04c1.38,0,2.5,1.12,2.5,2.5
		S90.69,46.89,89.31,46.89z"/>
</g>
</svg>
