<?xml version="1.0" encoding="utf-8"?>
<!-- Generator: Adobe Illustrator 24.0.1, SVG Export Plug-In . SVG Version: 6.00 Build 0)  -->
<svg version="1.1" id="Layer_1" xmlns="http://www.w3.org/2000/svg" xmlns:xlink="http://www.w3.org/1999/xlink" x="0px" y="0px"
	 viewBox="0 0 125.36 125.36" style="enable-background:new 0 0 125.36 125.36;" xml:space="preserve">
<style type="text/css">
	.st0{fill:#FA7D7D;}
	.st1{fill:#241F20;}
	.st2{fill:#FF7479;}
</style>
<path class="st0" d="M62.68,5.29c-31.64,0-57.39,25.74-57.39,57.39s25.74,57.39,57.39,57.39c31.64,0,57.38-25.74,57.38-57.39
	S94.32,5.29,62.68,5.29z M94.36,85.86c0,4.69-3.81,8.5-8.5,8.5H39.5c-4.69,0-8.5-3.81-8.5-8.5V39.5c0-4.69,3.81-8.5,8.5-8.5h46.35
	c4.69,0,8.5,3.81,8.5,8.5V85.86z"/>
<path class="st1" d="M62.68,0.29c-34.4,0-62.39,27.99-62.39,62.39c0,34.4,27.99,62.39,62.39,62.39c34.4,0,62.38-27.99,62.38-62.39
	C125.06,28.28,97.08,0.29,62.68,0.29z M62.68,120.06c-31.64,0-57.39-25.74-57.39-57.39S31.04,5.29,62.68,5.29
	c31.64,0,57.38,25.74,57.38,57.39S94.32,120.06,62.68,120.06z"/>
<path class="st1" d="M85.86,31H39.5c-4.69,0-8.5,3.81-8.5,8.5v46.35c0,4.69,3.81,8.5,8.5,8.5h46.35c4.69,0,8.5-3.81,8.5-8.5V39.5
	C94.36,34.82,90.54,31,85.86,31z M89.36,85.86c0,1.93-1.57,3.5-3.5,3.5H39.5c-1.93,0-3.5-1.57-3.5-3.5V39.5c0-1.93,1.57-3.5,3.5-3.5
	h46.35c1.93,0,3.5,1.57,3.5,3.5V85.86z"/>
<path class="st1" d="M62.68,47.38c-8.44,0-15.3,6.86-15.3,15.3s6.86,15.3,15.3,15.3s15.3-6.86,15.3-15.3S71.11,47.38,62.68,47.38z
	 M62.68,71.98c-5.13,0-9.3-4.17-9.3-9.3c0-5.13,4.17-9.3,9.3-9.3c5.13,0,9.3,4.17,9.3,9.3C71.98,67.81,67.81,71.98,62.68,71.98z"/>
<path class="st2" d="M80.98,49.23c1.34,0,2.55-0.54,3.43-1.42C83.53,48.69,82.32,49.23,80.98,49.23L80.98,49.23z"/>
<path class="st2" d="M85.73,45.36c-0.19,0.95-0.66,1.79-1.32,2.45C85.07,47.15,85.54,46.31,85.73,45.36z"/>
<path class="st2" d="M84.41,40.95c-0.88-0.88-2.09-1.42-3.43-1.42c-1.19,0-2.26,0.44-3.11,1.15c0.84-0.71,1.92-1.15,3.11-1.15
	C82.32,39.53,83.53,40.07,84.41,40.95z"/>
<path class="st2" d="M76.23,43.4c0.16-0.77,0.52-1.47,1-2.06C76.74,41.93,76.38,42.63,76.23,43.4z"/>
<path class="st2" d="M84.41,40.95c0.66,0.66,1.13,1.51,1.32,2.45C85.54,42.45,85.07,41.61,84.41,40.95z"/>
<path class="st1" d="M76.96,47.09c0.35,0.52,0.79,0.96,1.31,1.31C77.75,48.05,77.3,47.61,76.96,47.09z"/>
<path class="st1" d="M77.87,40.68c-0.24,0.2-0.45,0.42-0.65,0.66C77.42,41.1,77.63,40.88,77.87,40.68z"/>
<path class="st1" d="M80.98,49.23L80.98,49.23c-0.67,0-1.31-0.14-1.89-0.38C79.67,49.1,80.31,49.23,80.98,49.23z"/>
<path class="st1" d="M84.41,40.95c-0.88-0.88-2.09-1.42-3.43-1.42c-1.19,0-2.26,0.44-3.11,1.15c-0.24,0.2-0.45,0.42-0.65,0.66
	c-0.48,0.59-0.84,1.29-1,2.06c-0.06,0.32-0.1,0.64-0.1,0.98c0,1,0.31,1.94,0.83,2.71c0.35,0.52,0.79,0.96,1.31,1.31
	c0.26,0.17,0.53,0.32,0.82,0.45c0.58,0.25,1.22,0.38,1.89,0.38c1.34,0,2.55-0.54,3.43-1.42c0.66-0.66,1.13-1.51,1.32-2.45
	c0.06-0.32,0.1-0.64,0.1-0.98s-0.03-0.66-0.1-0.98C85.54,42.45,85.07,41.61,84.41,40.95z"/>
</svg>
