<?xml version="1.0" encoding="utf-8"?>
<!-- Generator: Adobe Illustrator 24.0.1, SVG Export Plug-In . SVG Version: 6.00 Build 0)  -->
<svg version="1.1" id="Layer_1" xmlns="http://www.w3.org/2000/svg" xmlns:xlink="http://www.w3.org/1999/xlink" x="0px" y="0px"
	 viewBox="0 0 126.27 126.27" style="enable-background:new 0 0 126.27 126.27;" xml:space="preserve">
<style type="text/css">
	.st0{fill:#FA7D7D;stroke:#241F20;stroke-width:5;stroke-miterlimit:10;}
	.st1{fill:#241F20;stroke:#241F20;stroke-width:2;stroke-miterlimit:10;}
	.st2{fill:none;stroke:#241F20;stroke-width:5;stroke-linecap:round;stroke-linejoin:round;stroke-miterlimit:10;}
</style>
<circle class="st0" cx="63.13" cy="63.13" r="59.88"/>
<path class="st1" d="M49.69,61.89c7.12,0.9,11.27,5.05,11.27,11.68c0,9.19-6.77,13.75-17.21,13.75c-4.08,0-7.6-0.07-10.65-0.21
	c-1.11,0-2-0.97-2-2.07V40.81c0-1.11,0.9-2,2-2.07c5.95-0.14,9.54-0.21,10.71-0.21c10.16,0,15.28,4.01,15.28,11.96
	C59.09,56.57,55.15,60.51,49.69,61.89z M34.89,60.71h9.4c6.29,0,10.99-3.66,10.99-9.47c0-6.08-3.87-9.12-11.61-9.12
	c-2,0-4.91,0.07-8.78,0.21V60.71z M34.89,64.1v19.35c5.18,0.21,8.16,0.28,8.99,0.28c8.5,0,13.27-3.53,13.27-10.37
	c0-5.88-4.7-9.26-13.06-9.26C44.09,64.1,34.89,64.1,34.89,64.1z"/>
<path class="st1" d="M96.11,70.94c0,0.62-0.69,1.38-1.45,1.38H70.32c0.28,7.46,5.25,12.03,12.72,12.03c3.11,0,5.94-0.9,8.43-2.7
	c0.35-0.21,0.62-0.35,0.97-0.35c0.48,0,0.97,0.21,1.38,0.69c0.21,0.35,0.35,0.62,0.35,0.97c0,0.42-0.14,0.76-0.48,1.11
	c-3.11,2.42-6.71,3.66-10.85,3.66c-4.91,0-8.92-1.45-11.96-4.42s-4.56-6.84-4.56-11.75c0-4.7,1.38-8.57,4.22-11.61
	c2.77-3.04,6.64-4.56,11.54-4.56c4.08,0,7.4,1.31,10.09,3.87c2.7,2.56,4.01,5.94,4.01,10.16C96.18,70.11,96.18,70.6,96.11,70.94z
	 M92.51,69.35c-0.07-6.57-4.22-10.58-10.78-10.58c-6.71,0-10.99,4.29-11.61,10.58H92.51z"/>
<line class="st2" x1="72.22" y1="44.84" x2="90.27" y2="44.84"/>
</svg>
