<?xml version="1.0" encoding="utf-8"?>
<!-- Generator: Adobe Illustrator 24.0.1, SVG Export Plug-In . SVG Version: 6.00 Build 0)  -->
<svg version="1.1" id="Layer_1" xmlns="http://www.w3.org/2000/svg" xmlns:xlink="http://www.w3.org/1999/xlink" x="0px" y="0px"
	 viewBox="0 0 125.36 125.36" style="enable-background:new 0 0 125.36 125.36;" xml:space="preserve">
<style type="text/css">
	.st0{fill:none;}
	.st1{fill:#FA7D7D;}
	.st2{fill:#241F20;}
	.st3{fill:#606060;}
</style>
<g>
	<path class="st0" d="M96.55,50.07c0,0.01,0,0.02-0.01,0.03c0.01,0,0.01,0.01,0.02,0.02C96.55,50.1,96.55,50.08,96.55,50.07z"/>
	<path class="st0" d="M83.49,46.84c-0.71-0.77-1.84-1.7-3.22-1.72c-0.02,0-0.03,0-0.05,0c-1.3,0-2.38,0.82-3.06,1.52
		c-0.92,0.94-1.75,2.11-2.4,3.37c-1.92,3.74-2.73,8.07-2.69,14.47c0.05,0.36,0.11,0.79,0.17,1.25c0.17,1.34,0.39,3.02,0.75,4.62
		c0.48,2.15,1.1,3.91,1.89,5.36c1.09,2,3.09,3.19,5.36,3.19c0.02,0,0.04,0,0.07,0c2.23-0.02,4.16-1.21,5.17-3.17
		c0.25-0.48,0.48-0.98,0.71-1.55c2.24-5.53,2.72-11.43,1.47-18.04C86.86,52.04,85.54,49.08,83.49,46.84z"/>
	<path class="st0" d="M45.79,43.86c-5.4,0.18-10.28,2.48-13.74,6.47c-3.45,3.98-5.02,9.11-4.43,14.45
		c0.97,8.8,7.75,15.6,16.49,16.54c0.36,0.04,0.68,0.12,0.92,0.19h2.48c0.29-0.05,0.59-0.1,0.88-0.15c0.74-0.12,1.43-0.24,2.09-0.4
		c8.84-2.16,14.67-9.74,14.49-18.86c-0.1-4.92-2.18-9.57-5.88-13.07C55.41,45.53,50.69,43.7,45.79,43.86z"/>
	<path class="st1" d="M62.68,5.29c-31.64,0-57.39,25.74-57.39,57.38s25.74,57.38,57.39,57.38c31.64,0,57.38-25.74,57.38-57.38
		S94.32,5.29,62.68,5.29z M102.85,66.51c0,0.09,0,0.17-0.01,0.26c-0.07,0.63-0.12,1.25-0.18,1.88c-0.15,1.62-0.31,3.29-0.59,4.96
		c-0.32,1.88-0.84,3.9-1.59,6.18c-0.08,0.26-0.2,0.52-0.35,0.76c-0.71,1.17-1.97,1.89-3.36,1.92c-1.44,0.05-2.77-0.64-3.56-1.81
		c-0.2-0.3-0.36-0.62-0.47-0.94c-0.5-1.52-1.05-3.25-1.39-5.05c-0.17,0.47-0.34,0.93-0.53,1.39c0,0,0,0,0,0
		c-0.29,0.71-0.58,1.35-0.9,1.97c-1.88,3.63-5.46,5.83-9.57,5.87c-0.04,0-0.08,0-0.11,0c-4.08,0-7.81-2.22-9.76-5.8
		c-0.98-1.8-1.73-3.89-2.31-6.37c-2.84,6.9-8.83,12.22-16.49,14.1h0c-0.84,0.21-1.66,0.34-2.45,0.47c-0.3,0.05-0.6,0.1-0.9,0.15
		c-0.24,0.04-0.49,0.06-0.73,0.06h-2.67c-0.39,0-0.76-0.05-1.12-0.15c-0.12-0.04-0.19-0.06-0.26-0.07
		c-11.05-1.19-19.65-9.81-20.89-20.96c-0.75-6.74,1.25-13.23,5.62-18.27c4.38-5.06,10.55-7.97,17.36-8.2
		c6.24-0.19,12.24,2.11,16.9,6.54c2.46,2.34,4.36,5.08,5.62,8.07c0.52-2.07,1.23-3.95,2.15-5.75c0.88-1.7,2.01-3.29,3.27-4.58
		c1.97-2.02,4.32-3.02,6.76-3.02c2.5,0.04,4.86,1.2,6.82,3.34c1.82,1.98,3.19,4.32,4.18,7.16c0.08-0.45,0.16-0.89,0.25-1.33
		c0.32-1.63,0.93-3.15,1.48-4.42c0.53-1.22,1.95-2.51,3.55-2.51c0,0,0,0,0.01,0c1.69,0,3.19,1.43,3.62,2.75
		c0.68,2.12,1.38,4.31,1.78,6.61c0.31,1.8,0.47,3.6,0.61,5.35c0.06,0.7,0.2,2.26,0.2,2.34L102.85,66.51z"/>
	<path class="st2" d="M62.68,0.29c-34.4,0-62.39,27.99-62.39,62.38s27.99,62.38,62.39,62.38c34.4,0,62.38-27.99,62.38-62.38
		S97.08,0.29,62.68,0.29z M62.68,120.06c-31.64,0-57.39-25.74-57.39-57.38S31.04,5.29,62.68,5.29c31.64,0,57.38,25.74,57.38,57.38
		S94.32,120.06,62.68,120.06z"/>
	<path class="st2" d="M102.66,57.06c-0.15-1.74-0.3-3.54-0.61-5.35c-0.4-2.3-0.89-4.83-1.78-6.61c-0.62-1.24-1.93-2.75-3.62-2.75
		c0,0,0,0-0.01,0c-1.6,0-3.03,1.29-3.55,2.51c-0.55,1.27-1.16,2.79-1.48,4.42c-0.09,0.44-0.17,0.89-0.25,1.33
		c-0.99-2.85-2.36-5.18-4.18-7.16c-1.97-2.15-4.33-3.3-6.82-3.34c-2.44,0-4.79,1-6.76,3.02c-1.27,1.29-2.4,2.88-3.27,4.58
		c-0.92,1.8-1.64,3.68-2.15,5.75c-1.26-2.99-3.16-5.73-5.62-8.07c-4.66-4.42-10.66-6.73-16.9-6.54c-6.81,0.23-12.97,3.14-17.36,8.2
		c-4.37,5.04-6.36,11.54-5.62,18.27c1.23,11.15,9.84,19.77,20.89,20.96c0.07,0.01,0.13,0.03,0.26,0.07c0.35,0.1,0.73,0.15,1.12,0.15
		h2.67c0.24,0,0.48-0.02,0.73-0.06c0.3-0.05,0.6-0.1,0.9-0.15c0.79-0.13,1.61-0.27,2.45-0.47h0c7.67-1.87,13.65-7.2,16.49-14.1
		c0.58,2.48,1.33,4.57,2.31,6.37c1.95,3.59,5.68,5.8,9.76,5.8c0.04,0,0.08,0,0.11,0c4.11-0.04,7.69-2.23,9.57-5.87
		c0.32-0.62,0.61-1.26,0.9-1.97c0,0,0,0,0,0c0.19-0.46,0.36-0.93,0.53-1.39c0.34,1.8,0.89,3.53,1.39,5.05
		c0.11,0.33,0.27,0.64,0.47,0.94c0.79,1.17,2.12,1.86,3.56,1.81c1.4-0.04,2.65-0.75,3.36-1.92c0.15-0.25,0.26-0.51,0.35-0.76
		c1.73-4.8,2-9.53,2.19-11.14c0.53-4.58,0.2-9.41,0.19-9.49C102.78,58.46,102.72,57.76,102.66,57.06z M50.48,80.96
		c-0.66,0.16-1.35,0.28-2.09,0.4c-0.3,0.05-0.59,0.1-0.88,0.15h-2.48c-0.24-0.07-0.55-0.15-0.92-0.19
		c-8.73-0.94-15.51-7.74-16.49-16.54c-0.59-5.34,0.98-10.47,4.43-14.45c3.46-4,8.34-6.3,13.74-6.47c4.89-0.16,9.61,1.67,13.3,5.17
		c3.7,3.51,5.78,8.15,5.88,13.07C65.14,71.22,59.32,78.8,50.48,80.96z M86.17,74.18c-0.23,0.57-0.46,1.07-0.71,1.55
		c-1.01,1.96-2.95,3.14-5.17,3.17c-0.02,0-0.04,0-0.07,0c-2.28,0-4.28-1.19-5.36-3.19c-0.79-1.46-1.41-3.21-1.89-5.36
		c-0.36-1.61-0.57-3.28-0.75-4.62c-0.06-0.46-0.11-0.89-0.17-1.25c-0.04-6.4,0.77-10.73,2.69-14.47c0.65-1.26,1.48-2.43,2.4-3.37
		c0.68-0.7,1.76-1.52,3.06-1.52c0.02,0,0.03,0,0.05,0c1.38,0.02,2.51,0.95,3.22,1.72c2.06,2.24,3.38,5.2,4.15,9.31
		C88.89,62.76,88.41,68.66,86.17,74.18z M97.82,65.15c0.02,0.82-0.01,1.64-0.07,2.46c-0.18,2.25-0.58,6.78-1.16,7.65
		c-0.01-0.02-0.01-0.04-0.01-0.06c-0.02,0.04-0.05,0.06-0.07,0.06c-0.17,0-0.32-1.02-0.44-2.71c-0.91-7.22-0.89-10.73-0.37-18.73
		c0.14-2.88,0.64-3.74,0.81-3.74c0.01,0,0.02,0.02,0.03,0.03c0-0.01,0-0.02,0.01-0.03c0,0.02,0.01,0.03,0.01,0.05
		c0.07,0.09,1.12,1.31,1.12,7.37C97.68,58,97.78,62.83,97.82,65.15z"/>
	<path class="st3" d="M96.54,50.1c-0.01-0.01-0.02-0.03-0.03-0.03c-0.17,0-0.32,1.02-0.44,2.72c0.13-0.85,0.28-1.69,0.44-2.52
		C96.52,50.21,96.53,50.15,96.54,50.1z"/>
</g>
</svg>
