<?xml version="1.0" encoding="utf-8"?>
<!-- Generator: Adobe Illustrator 24.0.1, SVG Export Plug-In . SVG Version: 6.00 Build 0)  -->
<svg version="1.1" id="Layer_1" xmlns="http://www.w3.org/2000/svg" xmlns:xlink="http://www.w3.org/1999/xlink" x="0px" y="0px"
	 viewBox="0 0 129.44 510.61" style="enable-background:new 0 0 129.44 510.61;" xml:space="preserve">
<style type="text/css">
	.st0{fill:none;}
	.st1{fill:#241F20;}
	.st2{fill:#FA7D7D;}
</style>
<g>
	<path class="st0" d="M36.25,12.21c1.11-0.6,2.25-1.16,3.4-1.69C38.5,11.05,37.36,11.6,36.25,12.21z"/>
	<path class="st0" d="M32.81,14.25c1.13-0.71,2.27-1.41,3.45-2.04C35.08,12.85,33.93,13.54,32.81,14.25z"/>
	<path class="st0" d="M49.79,503.73c-2.86-0.74-5.64-1.68-8.32-2.81C44.15,502.05,46.93,502.99,49.79,503.73z"/>
	<path class="st0" d="M5,445.89V64.72c0-19.58,9.43-36.96,23.99-47.85C14.43,27.75,5,45.14,5,64.72L5,445.89
		c0,19.58,9.43,36.96,23.99,47.85C14.43,482.86,5,465.48,5,445.89z"/>
	<path class="st0" d="M41.47,500.92c-1.79-0.76-3.53-1.6-5.22-2.51C37.94,499.32,39.69,500.16,41.47,500.92z"/>
	<path class="st0" d="M36.25,498.4c-1.69-0.92-3.34-1.92-4.92-2.99C32.92,496.49,34.56,497.48,36.25,498.4z"/>
	<path class="st0" d="M43.42,8.93c0.56-0.22,1.13-0.42,1.71-0.62C44.55,8.5,43.98,8.71,43.42,8.93z"/>
	<path class="st1" d="M64.72,0C29.03,0,0,29.03,0,64.72v381.18c0,35.69,29.03,64.72,64.72,64.72s64.72-29.03,64.72-64.72V64.72
		C129.44,29.03,100.4,0,64.72,0z M124.44,445.89c0,11.34-3.16,21.94-8.65,30.97c-2.49,4.1-5.47,7.88-8.85,11.26
		c-1.35,1.35-2.77,2.64-4.24,3.85c-10.32,8.52-23.56,13.64-37.99,13.64h0c-5.15,0-10.15-0.65-14.92-1.88
		c-2.86-0.74-5.64-1.68-8.32-2.81c-1.79-0.76-3.53-1.6-5.22-2.51c-1.69-0.92-3.34-1.92-4.92-2.99c-0.79-0.54-1.57-1.09-2.34-1.66
		C14.43,482.86,5,465.48,5,445.89V64.72c0-19.58,9.43-36.96,23.99-47.85c1.23-0.92,2.51-1.78,3.82-2.61
		c1.13-0.71,2.27-1.41,3.45-2.04c1.11-0.6,2.25-1.16,3.4-1.69c1.23-0.57,2.49-1.1,3.77-1.59c0.56-0.22,1.13-0.42,1.71-0.62
		c1.53-0.53,3.08-1.02,4.67-1.43C54.56,5.65,59.56,5,64.72,5h0c5.15,0,10.15,0.65,14.92,1.88c1.91,0.49,3.78,1.07,5.61,1.74
		c1.83,0.67,3.62,1.43,5.36,2.27c1.74,0.84,3.43,1.76,5.08,2.76s3.23,2.07,4.76,3.22c0.77,0.57,1.52,1.16,2.26,1.77
		c1.47,1.22,2.89,2.5,4.24,3.85c3.38,3.38,6.35,7.16,8.85,11.26c5.49,9.03,8.65,19.63,8.65,30.97V445.89z"/>
	<path class="st1" d="M79.64,6.88c1.91,0.49,3.78,1.07,5.61,1.74C83.42,7.95,81.55,7.37,79.64,6.88z"/>
	<path class="st1" d="M106.94,22.49c3.38,3.38,6.35,7.16,8.85,11.26C113.3,29.65,110.32,25.87,106.94,22.49z"/>
	<path class="st1" d="M39.65,10.52c1.23-0.57,2.49-1.1,3.77-1.59C42.14,9.41,40.88,9.95,39.65,10.52z"/>
	<path class="st1" d="M85.25,8.62c1.83,0.67,3.62,1.43,5.36,2.27C88.87,10.05,87.08,9.29,85.25,8.62z"/>
	<path class="st1" d="M102.7,18.64c1.47,1.22,2.89,2.5,4.24,3.85C105.59,21.14,104.18,19.85,102.7,18.64z"/>
	<path class="st1" d="M45.12,8.31c1.53-0.53,3.08-1.02,4.67-1.43C48.21,7.29,46.66,7.77,45.12,8.31z"/>
	<path class="st1" d="M95.68,13.65c1.64,1,3.23,2.07,4.76,3.22C98.91,15.72,97.33,14.64,95.68,13.65z"/>
	<path class="st1" d="M106.94,488.12c-1.35,1.35-2.77,2.64-4.24,3.85C104.18,490.76,105.59,489.47,106.94,488.12z"/>
	<path class="st1" d="M124.44,64.72v381.18c0,11.34-3.16,21.94-8.65,30.97c5.49-9.03,8.65-19.63,8.65-30.97L124.44,64.72
		c0-11.34-3.16-21.94-8.65-30.97C121.28,42.78,124.44,53.38,124.44,64.72z"/>
	<path class="st1" d="M115.79,476.86c-2.49,4.1-5.47,7.88-8.85,11.26C110.32,484.74,113.3,480.96,115.79,476.86z"/>
	<path class="st1" d="M28.99,16.86c1.23-0.92,2.51-1.78,3.82-2.61C31.5,15.08,30.22,15.94,28.99,16.86z"/>
	<path class="st1" d="M87.14,43.73H42.3c-3.82,0-6.82,2.99-6.82,6.82c0,3.9,2.99,6.96,6.82,6.96h15.49V98
		c0,3.84,3.12,6.96,6.96,6.96c3.88,0,7.04-3.12,7.04-6.96V57.5h15.35c3.76,0,6.82-3.06,6.82-6.82
		C93.96,46.78,90.96,43.73,87.14,43.73z M87.14,53.5H67.78V98c0,1.66-1.33,2.96-3.04,2.96c-1.63,0-2.96-1.33-2.96-2.96V53.5H42.3
		c-1.63,0-2.82-1.25-2.82-2.96c0-1.63,1.18-2.82,2.82-2.82h44.84c1.63,0,2.82,1.25,2.82,2.96C89.96,52.27,88.72,53.5,87.14,53.5z"/>
	<path class="st1" d="M45.78,188.39c-3.87,0-6.89,2.99-6.89,6.82v47.75c0,3.7,3.12,6.82,6.82,6.82c3.91,0,6.96-2.99,6.96-6.82v-28.1
		l25.14,31.68c1.58,2.09,3.76,3.24,6.13,3.24c3.91,0,6.75-2.9,6.75-6.89v-47.67c0-3.82-2.99-6.82-6.82-6.82
		c-3.91,0-6.96,2.99-6.96,6.82v27.88l-24.93-31.41C49.85,188.97,47.44,188.39,45.78,188.39z M80.89,234.57v-39.36
		c0-1.63,1.25-2.82,2.96-2.82c1.63,0,2.82,1.18,2.82,2.82v47.67c0,1.81-1.03,2.89-2.75,2.89c-1.13,0-2.13-0.57-2.96-1.69l-32.3-40.7
		v39.57c0,1.63-1.25,2.82-2.96,2.82c-1.5,0-2.82-1.32-2.82-2.82v-47.75c0-1.63,1.22-2.82,2.89-2.82c1.13,0,2.12,0.58,3.03,1.76
		L80.89,234.57z"/>
	<path class="st1" d="M81.71,405.5c-2.47,0-4.7,1.27-6.1,3.48l-10.82,17.14l-10.75-17.11c-1.44-2.27-3.59-3.5-6.05-3.5
		c-3.91,0-6.96,3.06-6.96,6.96c0,1.33,0.34,2.56,1.01,3.67c0.02,0.03,0.03,0.05,0.05,0.08l15.52,24.52v19.19
		c0,3.84,3.12,6.96,6.96,6.96c3.88,0,7.04-3.12,7.04-6.96v-19.18l15.78-24.71c0.02-0.03,0.04-0.06,0.06-0.09
		c0.72-1.2,1.09-2.44,1.09-3.69C88.53,408.53,85.47,405.5,81.71,405.5z M84.01,413.88l-16.41,25.7v20.35c0,1.66-1.33,2.96-3.04,2.96
		c-1.63,0-2.96-1.33-2.96-2.96v-20.35l-16.14-25.5c-0.29-0.48-0.43-1.01-0.43-1.61c0-1.69,1.27-2.96,2.96-2.96
		c1.08,0,1.97,0.55,2.66,1.63l14.13,22.49l14.2-22.5c0.86-1.34,1.96-1.63,2.73-1.63c1.53,0,2.82,1.26,2.82,2.75
		C84.53,412.77,84.37,413.29,84.01,413.88z"/>
	<path class="st1" d="M83.86,347.16c3.82,0,6.82-2.99,6.82-6.82c0-3.9-2.99-6.96-6.82-6.96c0,0,0,0,0,0l-37.85,0.01
		c-3.92,0-7.11,3.19-7.11,7.11v46.66c0,3.92,3.19,7.11,7.11,7.11l37.85-0.01c3.82,0,6.82-2.99,6.82-6.82c0-3.9-2.99-6.96-6.82-6.96
		l-30.95,0.01V370.4l30.91,0.3c0,0,0,0,0,0c1.87,0,3.59-0.7,4.87-1.98c1.28-1.28,1.99-3,1.99-4.83c0-3.9-2.99-6.96-6.82-6.96
		l-30.95-0.3v-9.46L83.86,347.16z M83.86,360.93c1.63,0,2.82,1.25,2.82,2.96c0,1.58-1.24,2.82-2.83,2.82l-34.94-0.34v18.12
		l34.95-0.01c1.63,0,2.82,1.25,2.82,2.96c0,1.63-1.18,2.82-2.82,2.82l-37.85,0.01c-1.71,0-3.11-1.39-3.11-3.11V340.5
		c0-1.71,1.39-3.11,3.11-3.11l37.85-0.01h0c1.63,0,2.82,1.25,2.82,2.96c0,1.63-1.18,2.82-2.82,2.82l-34.95,0.01v17.42L83.86,360.93z
		"/>
	<path class="st1" d="M71.71,170.44v-47.53c0-3.74-3.15-6.89-6.89-6.89c-3.99,0-7.11,3.03-7.11,6.89v47.53
		c0,3.84,3.16,6.96,7.04,6.96C68.59,177.4,71.71,174.28,71.71,170.44z M61.72,170.44v-47.53c0-1.65,1.34-2.89,3.11-2.89
		c1.51,0,2.89,1.38,2.89,2.89v47.53c0,1.63-1.33,2.96-2.96,2.96C63.05,173.4,61.72,172.1,61.72,170.44z"/>
	<polygon class="st2" points="79.44,288.67 77.28,291.45 79.44,294.24 	"/>
	<polygon class="st2" points="50.14,294.24 52.3,291.45 50.14,288.67 	"/>
	<path class="st1" d="M43.18,321.12c0.02,0,0.03,0,0.05,0c-1.38,0-2.65-0.41-3.73-1.1C40.56,320.71,41.83,321.12,43.18,321.12z"/>
	<path class="st1" d="M43.25,261.79c-0.01,0-0.02,0-0.02,0c2.28,0.02,4,1.18,5.28,2.44C47.24,262.75,45.36,261.79,43.25,261.79z"/>
	<path class="st1" d="M86.39,321.12c1.36,0,2.62-0.41,3.69-1.1c-1.08,0.69-2.36,1.09-3.73,1.1
		C86.36,321.11,86.37,321.12,86.39,321.12z"/>
	<path class="st1" d="M86.32,261.79c-2.1,0-3.98,0.95-5.24,2.43c1.27-1.26,2.99-2.41,5.26-2.43
		C86.34,261.8,86.33,261.79,86.32,261.79z"/>
	<path class="st1" d="M86.32,317.11c0.01,0,0.01,0,0.02,0c-0.06,0-0.12-0.01-0.18-0.01C86.22,317.1,86.27,317.11,86.32,317.11z"/>
	<path class="st1" d="M43.18,265.79c-0.29,0-0.56,0.06-0.82,0.15c0.28-0.08,0.57-0.14,0.87-0.14
		C43.22,265.8,43.2,265.79,43.18,265.79z"/>
	<path class="st1" d="M86.39,265.79c-0.02,0-0.03,0-0.05,0c0.31,0,0.6,0.06,0.87,0.14C86.95,265.85,86.68,265.79,86.39,265.79z"/>
	<path class="st1" d="M85.96,317.08c-0.62-0.11-1.24-0.47-1.91-1.09C84.5,316.58,85.18,316.98,85.96,317.08z"/>
	<path class="st1" d="M45.52,315.99c-0.66,0.62-1.28,0.98-1.9,1.09C44.39,316.98,45.07,316.58,45.52,315.99z"/>
	<path class="st1" d="M43.25,317.11c0.06,0,0.11-0.01,0.16-0.02c-0.06,0.01-0.12,0.01-0.18,0.01
		C43.24,317.11,43.25,317.11,43.25,317.11z"/>
	<path class="st1" d="M90.29,263.03c1.8,1.27,2.99,3.39,2.99,5.78v-0.14C93.28,266.34,92.09,264.28,90.29,263.03z"/>
	<path class="st1" d="M87.21,316.97c1.2-0.36,2.06-1.43,2.06-2.74v-0.14C89.28,315.43,88.39,316.59,87.21,316.97z"/>
	<path class="st1" d="M39.28,263.03c-1.8,1.25-2.98,3.31-2.98,5.64v0.14C36.3,266.42,37.48,264.3,39.28,263.03z"/>
	<path class="st1" d="M40.3,314.09v0.14c0,1.31,0.86,2.38,2.06,2.74C41.19,316.59,40.3,315.43,40.3,314.09z"/>
	<path class="st1" d="M43.18,316.12L43.18,316.12c-0.26,0-0.5-0.06-0.72-0.16C42.69,316.06,42.93,316.12,43.18,316.12z"/>
	<path class="st1" d="M86.32,265.79c-0.06,0-0.11,0.01-0.16,0.02c0.06-0.01,0.12-0.01,0.18-0.01
		C86.33,265.8,86.33,265.79,86.32,265.79z"/>
	<path class="st1" d="M43.25,321.11c2.1,0,3.98-0.95,5.24-2.43c-1.27,1.26-2.99,2.41-5.26,2.43
		C43.24,321.11,43.24,321.11,43.25,321.11z"/>
	<path class="st1" d="M36.3,314.09v0.14c0,2.33,1.18,4.4,2.98,5.64C37.48,318.6,36.3,316.49,36.3,314.09z"/>
	<path class="st1" d="M84.05,266.92c0.66-0.62,1.28-0.98,1.91-1.09C85.18,265.93,84.51,266.33,84.05,266.92z"/>
	<path class="st1" d="M86.32,321.11c0.01,0,0.02,0,0.02,0c-2.28-0.02-4-1.18-5.28-2.44C82.33,320.16,84.22,321.11,86.32,321.11z"/>
	<path class="st1" d="M86.39,317.12c0.29,0,0.56-0.06,0.82-0.15c-0.28,0.08-0.57,0.14-0.88,0.14
		C86.36,317.11,86.37,317.12,86.39,317.12z"/>
	<path class="st1" d="M90.29,319.87c1.8-1.25,2.98-3.31,2.98-5.64v-0.14C93.28,316.49,92.09,318.61,90.29,319.87z"/>
	<path class="st1" d="M43.18,261.79c-1.36,0-2.62,0.41-3.68,1.1c1.08-0.69,2.36-1.09,3.73-1.1C43.21,261.8,43.2,261.79,43.18,261.79
		z"/>
	<path class="st1" d="M86.39,261.79c-0.02,0-0.03,0-0.04,0c1.37,0,2.65,0.41,3.73,1.09C89.01,262.2,87.74,261.79,86.39,261.79z"/>
	<path class="st1" d="M43.18,317.12c0.02,0,0.03,0,0.05,0c-0.31,0-0.6-0.06-0.88-0.14C42.62,317.06,42.9,317.12,43.18,317.12z"/>
	<path class="st1" d="M87.21,265.94c1.18,0.38,2.06,1.54,2.06,2.88v-0.14C89.28,267.37,88.42,266.3,87.21,265.94z"/>
	<path class="st1" d="M43.25,265.79c-0.01,0-0.01,0-0.02,0c0.06,0,0.12,0.01,0.18,0.02C43.36,265.81,43.31,265.79,43.25,265.79z"/>
	<path class="st1" d="M43.62,265.83c0.62,0.11,1.24,0.47,1.91,1.09C45.07,266.33,44.39,265.93,43.62,265.83z"/>
	<path class="st1" d="M42.36,265.94c-1.2,0.36-2.06,1.43-2.06,2.74v0.14C40.3,267.48,41.19,266.32,42.36,265.94z"/>
	<g>
		<path class="st0" d="M43.18,261.79c-1.36,0-2.62,0.41-3.68,1.1c1.08-0.69,2.36-1.09,3.73-1.1
			C43.21,261.8,43.2,261.79,43.18,261.79z"/>
		<path class="st0" d="M86.32,261.79c-2.1,0-3.98,0.95-5.24,2.43c1.27-1.26,2.99-2.41,5.26-2.43
			C86.34,261.8,86.33,261.79,86.32,261.79z"/>
		<path class="st0" d="M43.25,261.79c-0.01,0-0.02,0-0.02,0c2.28,0.02,4,1.18,5.28,2.44C47.24,262.75,45.36,261.79,43.25,261.79z"/>
		<path class="st0" d="M39.28,263.03c-1.8,1.25-2.98,3.31-2.98,5.64v0.14C36.3,266.42,37.48,264.3,39.28,263.03z"/>
		<path class="st0" d="M36.3,314.09v0.14c0,2.33,1.18,4.4,2.98,5.64C37.48,318.6,36.3,316.49,36.3,314.09z"/>
		<path class="st0" d="M86.39,261.79c-0.02,0-0.03,0-0.04,0c1.37,0,2.65,0.41,3.73,1.09C89.01,262.2,87.74,261.79,86.39,261.79z"/>
		<path class="st0" d="M83.86,347.16c3.82,0,6.82-2.99,6.82-6.82c0-3.9-2.99-6.96-6.82-6.96c0,0,0,0,0,0l-37.85,0.01
			c-3.92,0-7.11,3.19-7.11,7.11v46.66c0,3.92,3.19,7.11,7.11,7.11l37.85-0.01c3.82,0,6.82-2.99,6.82-6.82c0-3.9-2.99-6.96-6.82-6.96
			l-30.95,0.01V370.4l30.91,0.3c0,0,0,0,0,0c1.87,0,3.59-0.7,4.87-1.98c1.28-1.28,1.99-3,1.99-4.83c0-3.9-2.99-6.96-6.82-6.96
			l-30.95-0.3v-9.46L83.86,347.16z"/>
		<path class="st0" d="M43.18,321.12c0.02,0,0.03,0,0.05,0c-1.38,0-2.65-0.41-3.73-1.1C40.56,320.71,41.83,321.12,43.18,321.12z"/>
		<path class="st0" d="M81.71,405.5c-2.47,0-4.7,1.27-6.1,3.48l-10.82,17.14l-10.75-17.11c-1.44-2.27-3.59-3.5-6.05-3.5
			c-3.91,0-6.96,3.06-6.96,6.96c0,1.33,0.34,2.56,1.01,3.67c0.02,0.03,0.03,0.05,0.05,0.08l15.52,24.52v19.19
			c0,3.84,3.12,6.96,6.96,6.96c3.88,0,7.04-3.12,7.04-6.96v-19.18l15.78-24.71c0.02-0.03,0.04-0.06,0.06-0.09
			c0.72-1.2,1.09-2.44,1.09-3.69C88.53,408.53,85.47,405.5,81.71,405.5z"/>
		<path class="st0" d="M86.32,321.11c0.01,0,0.02,0,0.02,0c-2.28-0.02-4-1.18-5.28-2.44C82.33,320.16,84.22,321.11,86.32,321.11z"/>
		<path class="st0" d="M86.39,321.12c1.36,0,2.62-0.41,3.69-1.1c-1.08,0.69-2.36,1.09-3.73,1.1
			C86.36,321.11,86.37,321.12,86.39,321.12z"/>
		<path class="st0" d="M43.25,321.11c2.1,0,3.98-0.95,5.24-2.43c-1.27,1.26-2.99,2.41-5.26,2.43
			C43.24,321.11,43.24,321.11,43.25,321.11z"/>
		<path class="st0" d="M90.29,263.03c1.8,1.27,2.99,3.39,2.99,5.78v-0.14C93.28,266.34,92.09,264.28,90.29,263.03z"/>
		<path class="st0" d="M45.78,188.39c-3.87,0-6.89,2.99-6.89,6.82v47.75c0,3.7,3.12,6.82,6.82,6.82c3.91,0,6.96-2.99,6.96-6.82
			v-28.1l25.14,31.68c1.58,2.09,3.76,3.24,6.13,3.24c3.91,0,6.75-2.9,6.75-6.89v-47.67c0-3.82-2.99-6.82-6.82-6.82
			c-3.91,0-6.96,2.99-6.96,6.82v27.88l-24.93-31.41C49.85,188.97,47.44,188.39,45.78,188.39z"/>
		<path class="st0" d="M71.71,170.44v-47.53c0-3.74-3.15-6.89-6.89-6.89c-3.99,0-7.11,3.03-7.11,6.89v47.53
			c0,3.84,3.16,6.96,7.04,6.96C68.59,177.4,71.71,174.28,71.71,170.44z"/>
		<path class="st0" d="M87.14,43.73H42.3c-3.82,0-6.82,2.99-6.82,6.82c0,3.9,2.99,6.96,6.82,6.96h15.49V98
			c0,3.84,3.12,6.96,6.96,6.96c3.88,0,7.04-3.12,7.04-6.96V57.5h15.35c3.76,0,6.82-3.06,6.82-6.82
			C93.96,46.78,90.96,43.73,87.14,43.73z"/>
		<polygon class="st0" points="50.14,294.24 52.3,291.45 50.14,288.67 		"/>
		<path class="st0" d="M87.21,265.94c-0.26-0.09-0.54-0.15-0.82-0.15c-0.02,0-0.03,0-0.05,0c-0.01,0-0.01,0-0.02,0
			c-0.06,0-0.11,0.01-0.16,0.02c-0.07,0-0.13,0.01-0.2,0.02c-0.77,0.1-1.45,0.5-1.91,1.09c-0.35,0.33-0.71,0.72-1.09,1.21
			l-3.52,4.62l-8.26,10.83l-2.51,3.29l-3.5,4.58l-0.38,0.5l-0.38-0.5l-3.5-4.58l-2.51-3.29l-8.26-10.83l-3.51-4.6
			c-0.39-0.49-0.75-0.89-1.1-1.22c-0.46-0.59-1.13-0.99-1.91-1.09c-0.07-0.01-0.13-0.02-0.2-0.02c-0.06,0-0.11-0.02-0.16-0.02
			c-0.01,0-0.01,0-0.02,0c-0.02,0-0.03,0-0.05,0c-0.29,0-0.56,0.06-0.82,0.15c-1.2,0.36-2.06,1.43-2.06,2.74v0.14v45.28v0.14
			c0,1.31,0.86,2.38,2.06,2.74c0.26,0.09,0.54,0.15,0.82,0.15c0.02,0,0.03,0,0.05,0c0.01,0,0.01,0,0.02,0
			c0.06,0,0.11-0.01,0.16-0.02c0.07,0,0.14-0.01,0.2-0.02c0.77-0.1,1.45-0.5,1.9-1.09c0.35-0.33,0.71-0.72,1.09-1.21l3.52-4.62
			l8.26-10.83l-3.57-4.61l-4.69,6.05l-4,5.16v-28.97l4,5.16l4.69,6.05l2.53,3.27l3.55,4.58l1.92,2.48c0.22,0.27,0.47,0.47,0.74,0.63
			c0.35,0.2,0.74,0.32,1.17,0.32c0.01,0,0.03,0,0.04,0c0.02,0,0.03,0,0.05,0c0.43,0,0.82-0.11,1.17-0.31
			c0.27-0.15,0.52-0.35,0.73-0.62l1.93-2.49l3.55-4.58l2.53-3.27l4.69-6.05l4-5.16v28.97l-4-5.16l-4.69-6.05l-3.57,4.61l8.26,10.83
			l3.51,4.6c0.39,0.49,0.75,0.89,1.1,1.22c0.46,0.59,1.13,0.99,1.91,1.09c0.07,0.01,0.14,0.02,0.2,0.02c0.05,0,0.11,0.02,0.16,0.02
			c0.01,0,0.01,0,0.02,0c0.02,0,0.03,0,0.05,0c0.29,0,0.56-0.06,0.82-0.15c1.2-0.36,2.06-1.43,2.06-2.74v-0.14v-45.28v-0.14
			C89.28,267.37,88.42,266.3,87.21,265.94z"/>
		<path class="st0" d="M66,283.76c-0.35-0.2-0.74-0.32-1.17-0.32c-0.01,0-0.03,0-0.04,0c-0.02,0-0.03,0-0.05,0
			c-0.43,0-0.82,0.11-1.17,0.31l1.22,1.59L66,283.76z"/>
		<path class="st0" d="M90.29,319.87c1.8-1.25,2.98-3.31,2.98-5.64v-0.14C93.28,316.49,92.09,318.61,90.29,319.87z"/>
		<polygon class="st0" points="79.44,288.67 77.28,291.45 79.44,294.24 		"/>
		<path class="st2" d="M115.79,33.75c-2.49-4.1-5.47-7.88-8.85-11.26c-1.35-1.35-2.77-2.64-4.24-3.85c-0.74-0.61-1.49-1.2-2.26-1.77
			c-1.53-1.15-3.12-2.22-4.76-3.22s-3.34-1.92-5.08-2.76c-1.74-0.84-3.53-1.6-5.36-2.27c-1.83-0.67-3.7-1.25-5.61-1.74
			C74.87,5.65,69.87,5,64.72,5h0c-5.15,0-10.15,0.65-14.92,1.88c-1.59,0.41-3.14,0.89-4.67,1.43c-0.57,0.2-1.14,0.4-1.71,0.62
			c-1.28,0.49-2.53,1.02-3.77,1.59c-1.15,0.53-2.29,1.09-3.4,1.69c-1.18,0.64-2.32,1.33-3.45,2.04c-1.3,0.83-2.58,1.69-3.82,2.61
			C14.43,27.75,5,45.14,5,64.72v381.18c0,19.58,9.43,36.96,23.99,47.85c0.77,0.57,1.55,1.13,2.34,1.66
			c1.59,1.07,3.23,2.07,4.92,2.99c1.69,0.92,3.43,1.76,5.22,2.51c2.68,1.13,5.46,2.08,8.32,2.81c4.77,1.23,9.77,1.88,14.92,1.88h0
			c14.43,0,27.66-5.12,37.99-13.64c1.47-1.22,2.89-2.5,4.24-3.85c3.38-3.38,6.35-7.16,8.85-11.26c5.49-9.03,8.65-19.63,8.65-30.97
			V64.72C124.44,53.38,121.28,42.78,115.79,33.75z M87.44,415.94c-0.02,0.03-0.04,0.06-0.06,0.09L71.6,440.74v19.18
			c0,3.84-3.16,6.96-7.04,6.96c-3.84,0-6.96-3.12-6.96-6.96v-19.19l-15.52-24.52c-0.02-0.03-0.03-0.05-0.05-0.08
			c-0.67-1.11-1.01-2.34-1.01-3.67c0-3.9,3.06-6.96,6.96-6.96c2.46,0,4.61,1.24,6.05,3.5l10.75,17.11l10.82-17.14
			c1.41-2.21,3.63-3.48,6.1-3.48c3.76,0,6.82,3.03,6.82,6.75C88.53,413.5,88.16,414.74,87.44,415.94z M83.86,356.93
			c3.82,0,6.82,3.06,6.82,6.96c0,1.83-0.71,3.55-1.99,4.83c-1.28,1.28-3,1.98-4.87,1.98c0,0,0,0,0,0l-30.91-0.3v10.08l30.95-0.01
			c3.82,0,6.82,3.06,6.82,6.96c0,3.82-2.99,6.82-6.82,6.82l-37.85,0.01c-3.92,0-7.11-3.19-7.11-7.11V340.5
			c0-3.92,3.19-7.11,7.11-7.11l37.85-0.01c0,0,0,0,0,0c3.82,0,6.82,3.06,6.82,6.96c0,3.82-2.99,6.82-6.82,6.82l-30.96,0.01v9.46
			L83.86,356.93z M93.28,268.81v45.28v0.14c0,2.33-1.18,4.4-2.98,5.64c-0.02,0.02-0.04,0.03-0.06,0.05
			c-0.05,0.03-0.1,0.06-0.15,0.09c-1.07,0.69-2.33,1.1-3.69,1.1c-0.02,0-0.03,0-0.05,0c-0.01,0-0.02,0-0.02,0
			c-2.11,0-3.99-0.95-5.25-2.45c-0.48-0.48-0.9-0.97-1.26-1.42c-0.01-0.02-0.03-0.03-0.04-0.05l-11.33-14.85
			c-1.05,0.72-2.28,1.12-3.61,1.12c-0.02,0-0.03,0-0.05,0c-0.01,0-0.03,0-0.04,0c-1.33,0-2.56-0.39-3.61-1.12L49.8,317.21
			c-0.01,0.02-0.03,0.03-0.04,0.05c-0.36,0.45-0.78,0.95-1.26,1.43c-1.26,1.48-3.14,2.43-5.24,2.43c-0.01,0-0.02,0-0.02,0
			c-0.02,0-0.03,0-0.05,0c-1.36,0-2.62-0.41-3.69-1.1c-0.05-0.03-0.1-0.06-0.15-0.09c-0.02-0.02-0.04-0.03-0.07-0.05
			c-1.8-1.25-2.98-3.31-2.98-5.64v-0.14v-45.28v-0.14c0-2.33,1.18-4.4,2.98-5.64c0.02-0.02,0.04-0.03,0.06-0.05
			c0.05-0.03,0.1-0.06,0.15-0.09c1.07-0.69,2.33-1.1,3.68-1.1c0.02,0,0.03,0,0.04,0c0.01,0,0.02,0,0.02,0
			c2.11,0,3.99,0.95,5.25,2.44c0.48,0.48,0.9,0.97,1.26,1.42c0.01,0.02,0.03,0.03,0.04,0.05l11.33,14.85
			c1.05-0.72,2.28-1.12,3.61-1.12c0.02,0,0.03,0,0.05,0c0.01,0,0.03,0,0.04,0c1.33,0,2.56,0.39,3.61,1.12l11.34-14.86
			c0.01-0.02,0.03-0.03,0.04-0.05c0.36-0.45,0.78-0.95,1.26-1.43c1.26-1.48,3.14-2.43,5.24-2.43c0.01,0,0.02,0,0.02,0
			c0.02,0,0.03,0,0.04,0c1.35,0,2.62,0.41,3.68,1.1c0.05,0.03,0.11,0.06,0.16,0.1c0.02,0.01,0.04,0.03,0.06,0.05
			c1.8,1.24,2.99,3.31,2.99,5.65V268.81z M76.89,223.09v-27.88c0-3.82,3.06-6.82,6.96-6.82c3.82,0,6.82,2.99,6.82,6.82v47.67
			c0,3.99-2.84,6.89-6.75,6.89c-2.37,0-4.54-1.15-6.13-3.24l-25.14-31.68v28.1c0,3.82-3.06,6.82-6.96,6.82
			c-3.7,0-6.82-3.12-6.82-6.82v-47.75c0-3.82,3.03-6.82,6.89-6.82c1.66,0,4.08,0.57,6.18,3.3L76.89,223.09z M57.72,170.44v-47.53
			c0-3.86,3.12-6.89,7.11-6.89c3.73,0,6.89,3.16,6.89,6.89v47.53c0,3.84-3.12,6.96-6.96,6.96C60.88,177.4,57.72,174.28,57.72,170.44
			z M87.14,57.5H71.78V98c0,3.84-3.16,6.96-7.04,6.96c-3.84,0-6.96-3.12-6.96-6.96V57.5H42.3c-3.82,0-6.82-3.06-6.82-6.96
			c0-3.82,2.99-6.82,6.82-6.82h44.84c3.82,0,6.82,3.06,6.82,6.96C93.96,54.45,90.9,57.5,87.14,57.5z"/>
		<path class="st1" d="M90.29,263.03c-0.02-0.01-0.04-0.03-0.06-0.05c-0.05-0.03-0.1-0.06-0.16-0.1c-1.08-0.69-2.35-1.09-3.73-1.09
			c-2.28,0.02-3.99,1.17-5.26,2.43c-0.48,0.48-0.91,0.97-1.26,1.43c-0.01,0.02-0.03,0.03-0.04,0.05l-11.34,14.86
			c-1.05-0.73-2.28-1.12-3.61-1.12c-0.01,0-0.03,0-0.04,0c-0.02,0-0.03,0-0.05,0c-1.33,0-2.56,0.39-3.61,1.12l-11.33-14.85
			c-0.01-0.02-0.03-0.03-0.04-0.05c-0.36-0.45-0.78-0.95-1.26-1.42c-1.27-1.27-3-2.43-5.28-2.44c-1.37,0-2.65,0.41-3.73,1.1
			c-0.05,0.03-0.1,0.06-0.15,0.09c-0.02,0.01-0.04,0.03-0.06,0.05c-1.8,1.27-2.98,3.38-2.98,5.78v45.28c0,2.39,1.18,4.51,2.98,5.78
			c0.02,0.02,0.04,0.03,0.07,0.05c0.05,0.03,0.1,0.06,0.15,0.09c1.08,0.69,2.36,1.09,3.73,1.1c2.28-0.02,3.99-1.17,5.26-2.43
			c0.48-0.48,0.91-0.97,1.26-1.43c0.01-0.02,0.03-0.03,0.04-0.05l11.34-14.86c1.05,0.73,2.28,1.12,3.61,1.12c0.01,0,0.03,0,0.04,0
			c0.02,0,0.03,0,0.05,0c1.33,0,2.56-0.39,3.61-1.12l11.33,14.85c0.01,0.02,0.03,0.03,0.04,0.05c0.36,0.45,0.78,0.95,1.26,1.42
			c1.27,1.27,3,2.43,5.28,2.44c1.37,0,2.65-0.41,3.73-1.1c0.05-0.03,0.1-0.06,0.15-0.09c0.02-0.02,0.04-0.03,0.06-0.05
			c1.8-1.27,2.98-3.38,2.98-5.78v-45.28C93.28,266.42,92.09,264.3,90.29,263.03z M64.74,283.45c0.02,0,0.03,0,0.05,0
			c0.01,0,0.03,0,0.04,0c0.43,0,0.82,0.11,1.17,0.32l-1.22,1.59l-1.22-1.59C63.92,283.56,64.31,283.45,64.74,283.45z M89.28,268.81
			v45.28v0.14c0,1.31-0.86,2.38-2.06,2.74c-0.26,0.09-0.54,0.15-0.82,0.15c-0.02,0-0.03,0-0.05,0c-0.01,0-0.01,0-0.02,0
			c-0.05,0-0.11-0.01-0.16-0.02c-0.07,0-0.14-0.01-0.2-0.02c-0.78-0.1-1.45-0.5-1.91-1.09c-0.35-0.33-0.72-0.73-1.1-1.22l-3.51-4.6
			l-8.26-10.83l3.57-4.61l4.69,6.05l4,5.16v-28.97l-4,5.16l-4.69,6.05l-2.53,3.27l-3.55,4.58l-1.93,2.49
			c-0.21,0.27-0.46,0.47-0.73,0.62c-0.35,0.2-0.74,0.31-1.17,0.31c-0.02,0-0.03,0-0.05,0c-0.01,0-0.03,0-0.04,0
			c-0.43,0-0.82-0.11-1.17-0.32c-0.27-0.16-0.52-0.36-0.74-0.63l-1.92-2.48l-3.55-4.58l-2.53-3.27l-4.69-6.05l-4-5.16v28.97l4-5.16
			l4.69-6.05l3.57,4.61l-8.26,10.83l-3.52,4.62c-0.38,0.49-0.74,0.88-1.09,1.21c-0.46,0.59-1.13,0.99-1.9,1.09
			c-0.07,0.01-0.14,0.02-0.2,0.02c-0.05,0-0.11,0.02-0.16,0.02c-0.01,0-0.01,0-0.02,0c-0.02,0-0.03,0-0.05,0
			c-0.29,0-0.56-0.06-0.82-0.15c-1.2-0.36-2.06-1.43-2.06-2.74v-0.14v-45.28v-0.14c0-1.31,0.86-2.38,2.06-2.74
			c0.26-0.09,0.54-0.15,0.82-0.15c0.02,0,0.03,0,0.05,0c0.01,0,0.01,0,0.02,0c0.06,0,0.11,0.01,0.16,0.02c0.07,0,0.13,0.01,0.2,0.02
			c0.78,0.1,1.45,0.5,1.91,1.09c0.35,0.33,0.72,0.73,1.1,1.22l3.51,4.6l8.26,10.83l2.51,3.29l3.5,4.58l0.38,0.5l0.38-0.5l3.5-4.58
			l2.51-3.29l8.26-10.83l3.52-4.62c0.38-0.49,0.74-0.88,1.09-1.21c0.46-0.59,1.13-0.99,1.91-1.09c0.07-0.01,0.13-0.02,0.2-0.02
			c0.06,0,0.11-0.02,0.16-0.02c0.01,0,0.01,0,0.02,0c0.02,0,0.03,0,0.05,0c0.29,0,0.56,0.06,0.82,0.15c1.2,0.36,2.06,1.43,2.06,2.74
			V268.81z M77.28,291.45l2.16-2.79v5.58L77.28,291.45z M52.3,291.45l-2.16,2.79v-5.58L52.3,291.45z"/>
	</g>
</g>
</svg>
