<?xml version="1.0" encoding="utf-8"?>
<!-- Generator: Adobe Illustrator 24.0.1, SVG Export Plug-In . SVG Version: 6.00 Build 0)  -->
<svg version="1.1" id="Layer_1" xmlns="http://www.w3.org/2000/svg" xmlns:xlink="http://www.w3.org/1999/xlink" x="0px" y="0px"
	 viewBox="0 0 125.44 507.46" style="enable-background:new 0 0 125.44 507.46;" xml:space="preserve">
<style type="text/css">
	.st0{fill:#F37C7D;}
	.st1{fill:#241F20;}
	.st2{fill:#FFFFFF;}
</style>
<title>logo_pink</title>
<path class="st0" d="M42.7,395.62c-0.41,0-0.82-0.08-1.2-0.24C41.88,395.54,42.29,395.62,42.7,395.62z"/>
<path class="st0" d="M82.92,414.98c0.73,0.5,1.18,1.32,1.19,2.2c0.01,0.13,0.01,0.25,0,0.38c0.01-0.13,0.01-0.25,0-0.38
	C84.1,416.3,83.65,415.48,82.92,414.98z"/>
<path class="st0" d="M41.5,395.38c-0.37-0.16-0.71-0.38-1-0.67C40.79,395,41.13,395.22,41.5,395.38z"/>
<path class="st0" d="M70,338.96H42.7c-0.82,0-1.6,0.33-2.18,0.91c0.58-0.58,1.36-0.91,2.18-0.91H70z"/>
<path class="st0" d="M83.64,395.61c1.12,0.05,2.16-0.61,2.58-1.65C85.8,395,84.76,395.66,83.64,395.61z"/>
<path class="st0" d="M39.85,340.85c0.16-0.37,0.38-0.71,0.67-1C40.23,340.14,40.01,340.48,39.85,340.85z"/>
<path class="st0" d="M65.79,468.75c0.01,0.98-0.49,1.9-1.31,2.44C65.3,470.65,65.8,469.73,65.79,468.75v-22.09l17.78-27.87
	l-17.8,27.87L65.79,468.75z"/>
<path class="st0" d="M83.64,344.67c1.12,0.05,2.16-0.62,2.58-1.66C85.8,344.05,84.76,344.72,83.64,344.67z"/>
<path class="st0" d="M61.64,471.48c-0.35-0.15-0.67-0.36-0.93-0.63C60.97,471.12,61.29,471.33,61.64,471.48z"/>
<path class="st0" d="M44.86,414.48L44.86,414.48c0.26,0,0.52,0.03,0.77,0.1C45.38,414.51,45.12,414.48,44.86,414.48z"/>
<path class="st0" d="M60.35,470.39c-0.22-0.32-0.37-0.67-0.45-1.05C59.98,469.72,60.13,470.07,60.35,470.39z"/>
<polygon class="st0" points="83.64,389.9 83.64,389.9 45.56,389.91 45.56,389.91 "/>
<path class="st0" d="M62.78,471.68c0.6,0,1.19-0.17,1.7-0.49C63.97,471.51,63.38,471.68,62.78,471.68z"/>
<path class="st0" d="M42.03,418.25c0.07,0.27,0.18,0.52,0.32,0.76l17.49,27.65l-17.49-27.65C42.21,418.77,42.1,418.52,42.03,418.25z
	"/>
<path class="st0" d="M81.33,414.48c0.46,0,0.92,0.12,1.32,0.35C82.25,414.6,81.79,414.48,81.33,414.48z"/>
<path class="st0" d="M42.14,416.25c-0.15,0.37-0.22,0.76-0.22,1.16c0,0.28,0.04,0.57,0.11,0.84c-0.07-0.27-0.11-0.56-0.11-0.84
	C41.92,417.01,41.99,416.62,42.14,416.25z"/>
<path class="st0" d="M43.19,414.97c-0.45,0.32-0.8,0.77-1,1.28C42.39,415.74,42.74,415.29,43.19,414.97z"/>
<path class="st0" d="M63.02,440.81l-10.34-16.46L63.02,440.81z"/>
<polygon class="st0" points="47.07,311.42 47.07,311.42 56,299.71 56,299.71 "/>
<path class="st0" d="M63.04,283.1L63.04,283.1z"/>
<path class="st0" d="M84.08,417.56c-0.05,0.28-0.13,0.55-0.26,0.8C83.95,418.11,84.03,417.84,84.08,417.56z"/>
<path class="st0" d="M45.56,369.76l38.07,0.38L45.56,369.76z"/>
<polygon class="st0" points="41.98,265.15 41.98,265.15 41.98,265.15 "/>
<polygon class="st0" points="78.96,294.8 78.96,288.19 76.4,291.49 "/>
<path class="st0" d="M62.97,283.1"/>
<polygon class="st1" points="86.09,318.96 86.09,318.96 86.09,318.96 "/>
<path class="st0" d="M70.03,299.71l2.92,3.82L70.03,299.71z"/>
<polygon class="st0" points="47.07,294.8 49.63,291.5 47.07,288.19 "/>
<path class="st0" d="M63.05,92.64c0.6,0,1.19-0.17,1.69-0.49C64.24,92.47,63.65,92.64,63.05,92.64z"/>
<path class="st0" d="M38.76,41.3L38.76,41.3c-0.38,0.01-0.76-0.07-1.11-0.22C38,41.23,38.38,41.31,38.76,41.3z"/>
<path class="st0" d="M63.06,168.48c0.2,0,0.4-0.02,0.59-0.06C63.46,168.46,63.26,168.48,63.06,168.48z"/>
<path class="st0" d="M63.13,111.31c0.56,0.01,1.1,0.19,1.55,0.51C64.23,111.5,63.69,111.32,63.13,111.31z"/>
<path class="st0" d="M45.31,241.53c0.02,0.75-0.28,1.48-0.82,2C45.03,243.01,45.33,242.28,45.31,241.53v-43.59l0,0V241.53z"/>
<polygon class="st0" points="80.72,233.23 80.72,233.23 63.12,211.06 "/>
<path class="st0" d="M86.43,189.88v51.6c0.17,1.4-0.83,2.68-2.24,2.85c-0.15,0.02-0.31,0.02-0.46,0.01c1.41,0.09,2.63-0.99,2.71-2.4
	c0.01-0.15,0.01-0.31-0.01-0.46V189.88c0.07-1.47-1.07-2.71-2.53-2.78c-0.08,0-0.16,0-0.25,0l0,0c1.47-0.07,2.71,1.07,2.78,2.53
	C86.43,189.72,86.43,189.8,86.43,189.88z"/>
<path class="st0" d="M38.76,35.59c-0.74-0.02-1.47,0.26-2,0.78C37.29,35.85,38.02,35.57,38.76,35.59z"/>
<path class="st0" d="M42.38,244.31L42.38,244.31c-0.27,0-0.54-0.05-0.8-0.15C41.84,244.26,42.11,244.31,42.38,244.31z"/>
<path class="st0" d="M87.27,41.3L87.27,41.3c0.92,0.01,1.78-0.45,2.3-1.21C89.05,40.85,88.19,41.31,87.27,41.3z"/>
<path class="st0" d="M62.73,3C31.42,3.03,6,26.63,6.01,62.72v381.17c-0.42,31.32,24.64,57.05,55.96,57.47s57.05-24.64,57.47-55.96
	c0.01-0.5,0.01-1,0-1.51l3-381.18C122.45,30.48,94.04,3.04,62.73,3z M87.45,421.11c-0.02,0.03-0.04,0.07-0.07,0.1l-17.09,26.76
	v20.78c-0.15,4.13-3.62,7.35-7.75,7.2c-3.92-0.14-7.06-3.29-7.2-7.2v-20.79l-16.77-26.54l-0.06-0.09c-0.71-1.18-1.08-2.54-1.07-3.92
	c-0.04-4.06,3.21-7.39,7.27-7.43c0.06,0,0.11,0,0.17,0c2.66,0.01,5.12,1.44,6.46,3.74l11.71,18.65l11.78-18.68
	c1.38-2.29,3.85-3.69,6.52-3.71c3.97,0.02,7.19,3.23,7.22,7.2C88.56,418.57,88.18,419.93,87.45,421.11z M83.64,359.93
	c4.06,0.15,7.23,3.56,7.08,7.63c-0.14,3.85-3.23,6.94-7.08,7.08l-33.53-0.33v11.1h33.53c4.03,0,7.29,3.27,7.28,7.3
	c0,0.05,0,0.09,0,0.14c0.08,3.93-3.04,7.19-6.97,7.27c-0.1,0-0.21,0-0.31,0H42.7c-4.19-0.01-7.58-3.4-7.59-7.59v-50.47
	c0.01-4.19,3.4-7.59,7.59-7.6h40.94c4.02,0,7.28,3.26,7.28,7.28c0,0.05,0,0.1,0,0.15c0.09,3.93-3.03,7.19-6.96,7.28
	c-0.11,0-0.22,0-0.32,0H50.06v10.43L83.64,359.93z M93.74,267v49.14c-0.02,2.4-1.21,4.64-3.19,6l-0.07,0.05l-0.16,0.1
	c-1.17,0.77-2.54,1.18-3.94,1.19h-0.07c-2.16,0-4.22-0.95-5.61-2.61c-0.48-0.48-0.94-0.99-1.36-1.53v-0.06l-12.35-16.14
	c-1.15,0.82-2.52,1.26-3.93,1.25h-0.09c-1.41,0.01-2.78-0.43-3.93-1.25l-12.31,16.15v0.06c-0.42,0.54-0.87,1.05-1.36,1.53
	c-1.39,1.65-3.44,2.6-5.6,2.6H39.7c-1.4,0-2.77-0.41-3.94-1.18l-0.16-0.1l-0.07-0.05c-1.98-1.36-3.17-3.6-3.19-6v-49.29
	c0.02-2.4,1.21-4.65,3.2-6l0.06-0.05c0.05-0.04,0.11-0.07,0.17-0.1c1.15-0.78,2.49-1.2,3.88-1.23h0.07c2.16,0,4.22,0.96,5.61,2.61
	c0.48,0.48,0.94,0.99,1.36,1.53v0.06L59,279.82c1.15-0.82,2.52-1.26,3.93-1.25h0.09c1.41-0.01,2.78,0.43,3.93,1.25l12.32-16.15
	v-0.06c0.42-0.54,0.88-1.05,1.36-1.53c1.39-1.65,3.44-2.6,5.6-2.6h0.07c1.4,0,2.76,0.41,3.93,1.18c0.06,0.03,0.12,0.06,0.17,0.1
	l0.07,0.05c1.98,1.36,3.17,3.6,3.19,6L93.74,267z M76.22,220.32v-30.44c-0.05-3.97,3.12-7.23,7.1-7.28c0.11,0,0.22,0,0.33,0
	c3.93-0.09,7.19,3.03,7.28,6.96c0,0.11,0,0.22,0,0.32v51.6c0.2,3.86-2.77,7.15-6.63,7.35c-0.19,0.01-0.38,0.01-0.57,0.01
	c-2.61-0.05-5.04-1.34-6.55-3.47l-27.37-34.52v30.68c0.05,3.97-3.12,7.23-7.1,7.28c-0.11,0-0.22,0-0.33,0
	c-4-0.05-7.23-3.28-7.28-7.28v-51.65c-0.02-4,3.2-7.26,7.2-7.28c0.05,0,0.11,0,0.16,0c2.64,0.04,5.11,1.35,6.61,3.53L76.22,220.32z
	 M55.57,165.58v-51.42c0-4.14,3.36-7.5,7.5-7.5s7.5,3.36,7.5,7.5v51.42c0,4.14-3.36,7.5-7.5,7.5S55.57,169.72,55.57,165.58z
	 M87.27,45.8h-16.7v43.91c0,4.13-3.35,7.47-7.47,7.47s-7.47-3.34-7.47-7.47V45.8H38.76c-4.02,0-7.28-3.26-7.28-7.28
	c0-0.05,0-0.1,0-0.15c-0.09-3.93,3.03-7.19,6.96-7.28c0.11,0,0.22,0,0.32,0h48.51c4.06,0.15,7.23,3.56,7.08,7.63
	C94.21,42.57,91.12,45.66,87.27,45.8z"/>
<path class="st0" d="M87.27,35.59L87.27,35.59c0.29,0.01,0.57,0.05,0.85,0.14C87.84,35.64,87.56,35.6,87.27,35.59z"/>
<path class="st0" d="M66.06,89.71c0.01,0.99-0.49,1.91-1.32,2.44C65.57,91.62,66.07,90.7,66.06,89.71V41.3l0,0V89.71z"/>
<path class="st0" d="M42.46,187.1L42.46,187.1c0.57,0,1.12,0.16,1.61,0.45C43.58,187.26,43.03,187.1,42.46,187.1z"/>
<path class="st1" d="M62.73,0C28.1,0.03,0.04,28.09,0.01,62.72v381.17c-0.44,34.64,27.29,63.07,61.92,63.51s63.07-27.29,63.51-61.92
	c0.01-0.53,0.01-1.06,0-1.58V62.72C125.41,28.1,97.35,0.04,62.73,0z M122.44,443.89c0.01,32.98-26.72,59.71-59.7,59.72h-0.01l0,0
	c-32.98,0-59.72-26.74-59.72-59.72l0,0V62.72C3,29.74,29.73,3.01,62.71,3c0.01,0,0.01,0,0.02,0l0,0c32.98,0,59.71,26.73,59.71,59.71
	v0.01C122.44,62.72,122.44,443.89,122.44,443.89z"/>
<path class="st1" d="M62.73,3L62.73,3C29.75,2.99,3.02,29.72,3.01,62.7c0,0.01,0,0.01,0,0.02v381.17
	c0,32.98,26.74,59.72,59.72,59.72l0,0l0,0c32.98,0,59.71-26.73,59.71-59.71v-0.01V62.72C122.45,29.74,95.72,3.01,62.73,3
	C62.74,3,62.73,3,62.73,3z M119.44,443.89c0.42,31.32-24.64,57.05-55.96,57.47S6.43,476.72,6.01,445.4c-0.01-0.5-0.01-1,0-1.51
	V62.72C5.59,31.4,30.65,5.67,61.97,5.25s57.05,24.64,57.47,55.96c0.01,0.5,0.01,1,0,1.51V443.89z"/>
<path class="st1" d="M81.33,409.98c-2.67,0.02-5.14,1.42-6.52,3.71l-11.78,18.68l-11.71-18.65c-1.34-2.3-3.8-3.73-6.46-3.74
	c-4.06-0.05-7.39,3.2-7.44,7.26c0,0.06,0,0.11,0,0.17c-0.01,1.38,0.36,2.74,1.07,3.92l0.06,0.09l16.79,26.54v20.79
	c0.15,4.13,3.62,7.35,7.75,7.2c3.92-0.14,7.06-3.29,7.2-7.2v-20.78l17.09-26.76c0.03-0.03,0.05-0.07,0.07-0.1
	c0.73-1.18,1.11-2.54,1.12-3.93C88.54,413.2,85.31,409.99,81.33,409.98z M84.08,417.56c-0.05,0.28-0.13,0.55-0.26,0.8
	c-0.06,0.15-0.14,0.29-0.23,0.43l-17.8,27.87v22.09c0.01,0.98-0.49,1.9-1.31,2.44c-0.51,0.32-1.1,0.49-1.7,0.49l0,0
	c-0.2,0-0.4-0.02-0.59-0.06c-0.19-0.04-0.37-0.09-0.55-0.17c-0.35-0.15-0.67-0.36-0.93-0.63c-0.14-0.13-0.26-0.27-0.36-0.43
	c-0.22-0.32-0.37-0.67-0.45-1.05c-0.04-0.19-0.06-0.39-0.06-0.59v-22.09l-17.49-27.65c-0.14-0.24-0.25-0.49-0.32-0.76
	c-0.07-0.27-0.11-0.56-0.11-0.84c0-0.4,0.07-0.79,0.22-1.16c0.2-0.51,0.55-0.96,1-1.28c0.16-0.11,0.32-0.2,0.5-0.27
	c0.37-0.15,0.77-0.22,1.17-0.22l0,0c0.26,0,0.52,0.03,0.77,0.1c0.24,0.07,0.48,0.17,0.7,0.3c0.48,0.32,0.89,0.74,1.18,1.24
	l5.17,8.23l10.34,16.46l15.6-24.7c0.4-0.67,1.02-1.19,1.75-1.47c0.32-0.11,0.66-0.16,1-0.16c0.46,0,0.92,0.12,1.32,0.35l0.27,0.15
	c0.73,0.5,1.18,1.32,1.19,2.2C84.1,417.31,84.1,417.43,84.08,417.56z"/>
<path class="st1" d="M47.51,416.12l5.17,8.23L47.51,416.12c-0.29-0.5-0.7-0.92-1.18-1.24C46.81,415.2,47.22,415.62,47.51,416.12z"/>
<path class="st1" d="M82.65,414.83l0.27,0.15L82.65,414.83z"/>
<polygon class="st1" points="78.61,416.11 63.02,440.81 63.02,440.81 "/>
<path class="st1" d="M62.78,471.68L62.78,471.68c-0.2,0-0.4-0.02-0.59-0.06C62.38,471.66,62.58,471.68,62.78,471.68z"/>
<path class="st1" d="M44.86,414.48c-0.4,0-0.8,0.07-1.17,0.22C44.06,414.55,44.46,414.48,44.86,414.48z"/>
<path class="st1" d="M80.36,414.64c-0.56,0.2-1.05,0.54-1.42,1C79.31,415.18,79.8,414.84,80.36,414.64z"/>
<path class="st1" d="M83.64,349.17c3.93,0.09,7.19-3.03,7.28-6.96c0-0.11,0-0.22,0-0.32c0.07-4.02-3.13-7.34-7.15-7.41
	c-0.04,0-0.09,0-0.13,0H42.7c-4.19,0.01-7.58,3.41-7.59,7.6v50.47c0.01,4.19,3.4,7.58,7.59,7.59h40.94
	c3.93,0.09,7.19-3.03,7.28-6.96c0-0.1,0-0.21,0-0.31c0.08-4.03-3.11-7.36-7.14-7.44c-0.05,0-0.09,0-0.14,0H50.06v-11.1l33.53,0.33
	c4.06-0.15,7.23-3.56,7.08-7.63c-0.14-3.85-3.23-6.94-7.08-7.08l-33.58-0.33v-10.45H83.64z M83.64,364.43
	c0.38-0.01,0.77,0.07,1.12,0.22c1.06,0.48,1.72,1.55,1.66,2.71c0,0.37-0.07,0.75-0.22,1.09c-0.13,0.33-0.34,0.63-0.59,0.88
	c-0.38,0.39-0.87,0.65-1.41,0.75c-0.18,0.04-0.37,0.06-0.56,0.06l-38.07-0.38v20.15h38.07c0.38,0,0.76,0.07,1.12,0.22
	c1.06,0.48,1.71,1.56,1.66,2.72c0,0.38-0.07,0.76-0.2,1.12c-0.42,1.04-1.46,1.7-2.58,1.65H42.7c-0.82,0.01-1.61-0.32-2.18-0.91
	c-0.58-0.58-0.91-1.36-0.91-2.18v-50.47c0-0.42,0.08-0.83,0.24-1.21c0.16-0.37,0.38-0.71,0.67-1c0.58-0.58,1.36-0.91,2.18-0.91
	h40.94c0.38-0.01,0.77,0.07,1.12,0.22c1.06,0.48,1.71,1.55,1.66,2.71c0,0.38-0.06,0.76-0.2,1.12c-0.42,1.04-1.46,1.71-2.58,1.66
	H45.57v19.38L83.64,364.43z"/>
<path class="st1" d="M83.64,389.9L83.64,389.9c0.38,0,0.76,0.07,1.12,0.22C84.4,389.97,84.02,389.9,83.64,389.9z"/>
<path class="st1" d="M86.2,368.48c-0.13,0.33-0.34,0.63-0.59,0.88C85.86,369.11,86.07,368.81,86.2,368.48z"/>
<path class="st1" d="M83.64,344.67H45.57v19.38l38.08,0.38c0.38-0.01,0.77,0.07,1.12,0.22c-0.35-0.15-0.74-0.23-1.12-0.22
	l-38.08-0.38v-19.38H83.64z"/>
<path class="st1" d="M85.57,369.33c-0.38,0.39-0.87,0.65-1.41,0.75C84.7,369.98,85.19,369.72,85.57,369.33z"/>
<path class="st1" d="M83.64,338.96H70H83.64z"/>
<path class="st1" d="M83.64,338.96L83.64,338.96c0.38-0.01,0.77,0.07,1.12,0.22C84.41,339.03,84.02,338.95,83.64,338.96z"/>
<path class="st1" d="M87.27,31.09H38.76c-3.93-0.09-7.19,3.03-7.28,6.96c0,0.11,0,0.22,0,0.32c-0.08,4.02,3.11,7.35,7.13,7.43
	c0.05,0,0.1,0,0.15,0h16.86v43.91c0,4.13,3.35,7.47,7.47,7.47s7.47-3.34,7.47-7.47V45.8h16.71c4.06-0.15,7.23-3.56,7.08-7.63
	C94.21,34.32,91.12,31.23,87.27,31.09z M89.83,39.62c-0.07,0.16-0.15,0.32-0.25,0.47c-0.52,0.76-1.39,1.22-2.31,1.21H66.06v48.41
	c0.01,0.99-0.49,1.91-1.32,2.44c-0.5,0.32-1.09,0.49-1.69,0.49l0,0c-0.58,0-1.16-0.17-1.64-0.5c-0.81-0.55-1.29-1.46-1.29-2.43V41.3
	H38.76c-0.38,0.01-0.76-0.07-1.11-0.22c-0.17-0.07-0.33-0.15-0.47-0.26c-0.3-0.2-0.55-0.46-0.74-0.77
	c-0.31-0.51-0.47-1.09-0.46-1.68c-0.06-1.47,1.08-2.72,2.56-2.78c0.07,0,0.15,0,0.22,0h48.51c0.29,0.01,0.57,0.05,0.85,0.14
	c0.26,0.08,0.51,0.19,0.74,0.34c0.14,0.11,0.28,0.22,0.4,0.35c0.53,0.57,0.81,1.33,0.79,2.11C90.05,38.9,89.97,39.27,89.83,39.62z"
	/>
<path class="st1" d="M90.05,38.53c0,0.37-0.08,0.74-0.22,1.09C89.97,39.27,90.05,38.9,90.05,38.53c0.02-0.78-0.26-1.54-0.79-2.11
	C89.79,36.99,90.07,37.75,90.05,38.53z"/>
<path class="st1" d="M36.44,40.05c0.19,0.31,0.44,0.57,0.74,0.77C36.88,40.62,36.63,40.36,36.44,40.05z"/>
<path class="st1" d="M63.05,92.64L63.05,92.64c-0.58,0-1.16-0.17-1.64-0.5C61.89,92.47,62.47,92.64,63.05,92.64z"/>
<path class="st1" d="M88.12,35.73c0.26,0.08,0.51,0.19,0.74,0.34C88.63,35.92,88.38,35.81,88.12,35.73z"/>
<path class="st1" d="M36.76,36.37c-0.52,0.53-0.8,1.26-0.78,2c-0.01,0.59,0.15,1.17,0.46,1.68c-0.31-0.51-0.47-1.09-0.46-1.68
	C35.96,37.63,36.24,36.9,36.76,36.37z"/>
<path class="st1" d="M42.46,182.6c-4-0.07-7.29,3.12-7.36,7.12c0,0.05,0,0.11,0,0.16v51.65c0.05,4,3.28,7.23,7.28,7.28
	c3.97,0.13,7.29-2.98,7.43-6.95c0-0.11,0-0.22,0-0.33v-30.68l27.37,34.49c1.51,2.13,3.94,3.42,6.55,3.47
	c3.86,0.12,7.09-2.92,7.21-6.79c0.01-0.19,0-0.38-0.01-0.57v-51.57c0.09-3.93-3.03-7.19-6.96-7.28c-0.11,0-0.22,0-0.32,0
	c-3.97-0.13-7.29,2.98-7.43,6.95c0,0.11,0,0.22,0,0.33v30.44l-27.15-34.19C47.57,183.95,45.1,182.64,42.46,182.6z M80.72,233.23
	v-43.35c-0.04-1.37,0.95-2.55,2.31-2.73c0.21-0.02,0.41-0.02,0.62,0l0,0c1.47-0.07,2.71,1.07,2.78,2.53c0,0.08,0,0.16,0,0.25v51.55
	c0.17,1.4-0.83,2.68-2.24,2.85c-0.15,0.02-0.31,0.02-0.46,0.01c-0.28,0-0.56-0.04-0.83-0.11c-0.88-0.28-1.64-0.85-2.16-1.62
	l-35.43-44.67v43.59c0.02,0.75-0.28,1.48-0.82,2c-0.13,0.12-0.27,0.23-0.42,0.33c-0.51,0.31-1.1,0.46-1.69,0.45l0,0
	c-0.27,0-0.54-0.05-0.8-0.15c-0.26-0.08-0.5-0.19-0.73-0.34c-0.77-0.51-1.25-1.36-1.28-2.29v-51.65c-0.03-1.51,1.17-2.75,2.68-2.78
	c0.06,0,0.12,0,0.18,0l0,0c0.57,0,1.12,0.16,1.61,0.45c0.13,0.08,0.26,0.16,0.38,0.25c0.41,0.32,0.77,0.69,1.08,1.1l17.59,22.16
	L80.72,233.23z"/>
<path class="st1" d="M41.57,244.16c-0.26-0.08-0.5-0.19-0.73-0.34C41.07,243.97,41.31,244.08,41.57,244.16z"/>
<path class="st1" d="M80.74,242.58c0.52,0.77,1.28,1.34,2.16,1.62C82.02,243.92,81.26,243.35,80.74,242.58z"/>
<path class="st1" d="M45.57,188.9l17.59,22.16L45.57,188.9c-0.31-0.41-0.67-0.78-1.08-1.1C44.9,188.12,45.26,188.49,45.57,188.9z"/>
<path class="st1" d="M39.57,241.53v-51.65c-0.03-1.51,1.17-2.75,2.68-2.78c0.06,0,0.12,0,0.18,0l0,0c-1.51-0.07-2.79,1.09-2.86,2.6
	c0,0.06,0,0.12,0,0.18V241.53c0.02,0.92,0.49,1.77,1.25,2.29C40.06,243.3,39.59,242.45,39.57,241.53z"/>
<path class="st1" d="M45.31,197.94l35.43,44.64L45.31,197.94z"/>
<path class="st1" d="M80.72,189.88c-0.04-1.37,0.95-2.55,2.31-2.73C81.67,187.33,80.68,188.51,80.72,189.88v43.35l0,0V189.88z"/>
<path class="st1" d="M83.65,187.1c-0.21-0.02-0.41-0.02-0.62,0C83.24,187.08,83.44,187.08,83.65,187.1z"/>
<path class="st1" d="M42.38,244.31c0.59,0.01,1.18-0.14,1.69-0.45C43.56,244.16,42.97,244.32,42.38,244.31z"/>
<path class="st1" d="M70.49,165.58v-51.42c0-4.14-3.36-7.5-7.5-7.5s-7.5,3.36-7.5,7.5v51.42c0,4.14,3.36,7.5,7.5,7.5
	S70.49,169.72,70.49,165.58z M60.04,165.58v-51.42c0-0.58,0.18-1.15,0.52-1.62c0.11-0.15,0.23-0.29,0.37-0.41
	c0.29-0.27,0.63-0.47,1-0.6c0.39-0.15,0.8-0.23,1.22-0.22c0.56,0.01,1.1,0.19,1.55,0.51c0.15,0.11,0.3,0.23,0.43,0.37
	c0.55,0.52,0.86,1.24,0.88,2v51.39c0.01,1.41-0.98,2.62-2.36,2.9c-0.19,0.04-0.39,0.06-0.59,0.06l0,0
	C61.41,168.55,60.06,167.23,60.04,165.58z"/>
<path class="st1" d="M60.93,112.13c0.29-0.27,0.63-0.47,1-0.6C61.56,111.66,61.22,111.86,60.93,112.13z"/>
<path class="st1" d="M60.04,165.58v-51.42c0-0.58,0.18-1.15,0.52-1.62c-0.34,0.47-0.52,1.04-0.52,1.62V165.58
	c0.04,1.63,1.37,2.93,3,2.93l0,0C61.41,168.51,60.08,167.21,60.04,165.58z"/>
<path class="st1" d="M65.99,165.58c0.01,1.4-0.97,2.61-2.34,2.9c1.36-0.28,2.34-1.48,2.34-2.87v-51.45c-0.02-0.76-0.33-1.48-0.88-2
	c0.55,0.52,0.86,1.24,0.88,2V165.58z"/>
<path class="st2" d="M38.81,264.16L38.81,264.16l-0.26,0.08L38.81,264.16z"/>
<path class="st2" d="M85.96,264.04c-0.29,0.05-0.56,0.15-0.82,0.29C85.4,264.19,85.67,264.09,85.96,264.04z"/>
<path class="st1" d="M86.09,318.96"/>
<path class="st2" d="M41.98,265.14c-0.21-0.2-0.43-0.38-0.67-0.55C41.55,264.76,41.77,264.94,41.98,265.14z"/>
<path class="st1" d="M35.57,322.21l-0.07-0.05L35.57,322.21z"/>
<path class="st1" d="M86.38,323.48c1.4,0,2.77-0.41,3.94-1.18c-1.19,0.77-2.58,1.17-4,1.17L86.38,323.48z"/>
<path class="st1" d="M90.57,322.16l-0.07,0.05L90.57,322.16z"/>
<path class="st1" d="M39.65,323.48h0.05c-1.42,0-2.81-0.4-4-1.17C36.88,323.08,38.25,323.48,39.65,323.48z"/>
<path class="st1" d="M35.57,260.78c0.05-0.04,0.11-0.07,0.17-0.1C35.68,260.71,35.62,260.74,35.57,260.78z"/>
<path class="st1" d="M90.31,260.68c0.06,0.03,0.12,0.06,0.17,0.1C90.43,260.74,90.37,260.71,90.31,260.68z"/>
<path class="st1" d="M39.65,264L39.65,264c-0.29,0.01-0.57,0.06-0.84,0.16l0,0C39.08,264.06,39.36,264.01,39.65,264z"/>
<path class="st1" d="M86.31,259.48c-2.16,0-4.21,0.95-5.6,2.6c1.45-1.59,3.48-2.53,5.63-2.6H86.31z"/>
<path class="st1" d="M39.72,259.48L39.72,259.48c2.15,0.07,4.19,1.02,5.64,2.61C43.96,260.43,41.89,259.47,39.72,259.48z"/>
<polygon class="st1" points="85.97,264.04 85.96,264.04 85.96,264.04 "/>
<path class="st1" d="M84.04,317.85c0.08,0.11,0.17,0.21,0.26,0.3C84.21,318.06,84.12,317.96,84.04,317.85z"/>
<path class="st1" d="M86.09,318.96h0.22l0,0H86.09z"/>
<path class="st1" d="M85.74,318.93h0.22l0,0H85.74z"/>
<path class="st1" d="M35.49,260.83c-1.99,1.35-3.18,3.6-3.2,6v0.14C32.29,264.52,33.49,262.23,35.49,260.83z"/>
<path class="st1" d="M90.57,260.83c2.01,1.41,3.2,3.72,3.19,6.17v-0.14C93.75,264.45,92.56,262.19,90.57,260.83z"/>
<path class="st1" d="M63.06,283.1L63.06,283.1z"/>
<path class="st1" d="M63.02,283.1L63.02,283.1z"/>
<polygon class="st1" points="38.81,264.16 38.81,264.16 38.81,264.16 "/>
<path class="st2" d="M85.96,264.04L85.96,264.04z"/>
<path class="st1" d="M85.96,318.95c-0.29-0.05-0.56-0.15-0.82-0.29C85.4,318.8,85.67,318.9,85.96,318.95z"/>
<path class="st1" d="M86.33,318.98L86.33,318.98h-0.24l0,0H86.33z"/>
<path class="st2" d="M38.81,318.83L38.81,318.83l-0.26-0.08L38.81,318.83z"/>
<path class="st1" d="M85.14,318.66c-0.4-0.22-0.77-0.49-1.1-0.81c0.08,0.11,0.17,0.21,0.26,0.3c0.39,0.4,0.89,0.67,1.44,0.78h0.22
	C85.67,318.88,85.4,318.79,85.14,318.66z"/>
<path class="st2" d="M39.94,264.03L39.94,264.03z"/>
<path class="st2" d="M39.7,264.01h-0.05c-0.29,0.01-0.57,0.06-0.84,0.16C39.1,264.07,39.4,264.02,39.7,264.01z"/>
<path class="st1" d="M86.09,318.96h0.22l0,0H86.09z"/>
<path class="st2" d="M86.09,264.03L86.09,264.03z"/>
<path class="st2" d="M87.22,264.16c-0.27-0.1-0.55-0.15-0.84-0.16l0,0c0.19,0,0.39,0.02,0.58,0.05L87.22,264.16z"/>
<path class="st2" d="M40.07,264.04L40.07,264.04z"/>
<path class="st2" d="M39.7,264.01c-0.3,0-0.6,0.05-0.89,0.15l0,0C39.1,264.06,39.4,264.01,39.7,264.01z"/>
<path class="st2" d="M86.91,264.06c-0.19-0.03-0.39-0.05-0.58-0.05l0,0C86.52,264.01,86.72,264.03,86.91,264.06z"/>
<path class="st1" d="M84.3,264.84c-0.09,0.09-0.18,0.19-0.25,0.3l0,0C84.12,265.03,84.21,264.93,84.3,264.84z"/>
<path class="st1" d="M85.96,264.04c-0.07,0-0.15,0-0.22,0C85.81,264.04,85.89,264.04,85.96,264.04z"/>
<path class="st1" d="M86.38,259.48L86.38,259.48c1.42-0.01,2.81,0.4,4,1.17C89.19,259.87,87.8,259.46,86.38,259.48z"/>
<path class="st1" d="M90.48,260.78l0.07,0.05L90.48,260.78z"/>
<path class="st1" d="M32.29,315.99v0.15c0.02,2.4,1.21,4.64,3.19,6C33.48,320.73,32.29,318.44,32.29,315.99z"/>
<path class="st1" d="M85.96,318.95"/>
<path class="st1" d="M56,299.71l0.39-0.51L56,299.71z"/>
<path class="st1" d="M86.31,264.01L86.31,264.01h-0.22l0,0H86.31z"/>
<path class="st1" d="M64.57,283.62c-0.09-0.07-0.19-0.12-0.28-0.18l0,0C64.34,283.48,64.44,283.55,64.57,283.62z"/>
<path class="st1" d="M90.57,322.16c1.98-1.36,3.17-3.6,3.19-6v-0.15C93.76,318.46,92.57,320.75,90.57,322.16z"/>
<path class="st1" d="M35.49,260.83l0.06-0.05L35.49,260.83z"/>
<path class="st1" d="M35.71,322.31l-0.16-0.1L35.71,322.31z"/>
<path class="st1" d="M86.31,323.48L86.31,323.48c-2.15-0.07-4.19-1.02-5.64-2.61C82.07,322.54,84.14,323.49,86.31,323.48z"/>
<path class="st1" d="M39.72,323.48c2.16,0,4.21-0.95,5.6-2.6c-1.45,1.59-3.47,2.52-5.62,2.6H39.72z"/>
<path class="st1" d="M86.33,318.98L86.33,318.98z"/>
<path class="st1" d="M39.65,259.48c-1.4,0-2.76,0.41-3.93,1.18c1.19-0.77,2.58-1.18,4-1.17L39.65,259.48z"/>
<path class="st1" d="M90.48,322.21l-0.16,0.1L90.48,322.21z"/>
<path class="st1" d="M41.98,265.14c-0.07-0.1-0.15-0.2-0.24-0.3C41.83,264.94,41.91,265.04,41.98,265.14z"/>
<path class="st1" d="M86.33,264.01L86.33,264.01h-0.22H86.33z"/>
<path class="st1" d="M86.33,318.98L86.33,318.98c0.29-0.01,0.57-0.06,0.84-0.16c-0.1,0.04-0.2,0.08-0.31,0.1
	C86.69,318.95,86.51,318.97,86.33,318.98z"/>
<path class="st1" d="M89.24,267v-0.14c-0.01-0.75-0.31-1.47-0.85-2c-0.33-0.31-0.73-0.54-1.17-0.67l0.26,0.08
	C88.54,264.77,89.22,265.83,89.24,267z"/>
<path class="st1" d="M86.09,318.96L86.09,318.96z"/>
<path class="st1" d="M84.28,264.92c0.27-0.23,0.55-0.42,0.86-0.59c0.26-0.14,0.53-0.24,0.82-0.29c-0.07,0-0.15,0-0.22,0
	c-0.55,0.11-1.05,0.38-1.44,0.77c-0.09,0.09-0.18,0.19-0.25,0.3L84.28,264.92z"/>
<path class="st1" d="M38.06,264.48c0.16-0.1,0.32-0.2,0.49-0.28l0.26-0.08c-1.19,0.36-2.01,1.46-2,2.7v0.14
	C36.81,265.98,37.27,265.06,38.06,264.48z"/>
<path class="st1" d="M39.94,264.03h-0.22l0,0H39.94z"/>
<path class="st1" d="M41.31,264.59c0.24,0.17,0.46,0.35,0.67,0.55c-0.07-0.1-0.15-0.2-0.24-0.3c-0.26-0.26-0.57-0.46-0.91-0.61
	c-0.24-0.09-0.5-0.16-0.76-0.19C40.52,264.13,40.94,264.32,41.31,264.59z"/>
<path class="st1" d="M86.33,264.01L86.33,264.01z"/>
<path class="st1" d="M39.94,264.03h-0.22H39.94z"/>
<path class="st1" d="M40.83,264.23c-0.24-0.09-0.5-0.16-0.76-0.19l0,0C40.33,264.07,40.59,264.14,40.83,264.23z"/>
<path class="st1" d="M89.24,267L89.24,267v-0.14c-0.01-0.75-0.31-1.47-0.85-2c0.54,0.53,0.84,1.25,0.85,2V267z"/>
<path class="st1" d="M36.79,266.86c-0.01-1.24,0.81-2.34,2-2.7l0,0C37.6,264.52,36.78,265.62,36.79,266.86V267l0,0V266.86z"/>
<path class="st1" d="M39.72,264.01L39.72,264.01z"/>
<polygon class="st1" points="84.05,265.14 84.05,265.14 84.05,265.14 "/>
<polygon class="st1" points="38.81,318.83 38.81,318.83 38.81,318.83 "/>
<path class="st1" d="M67.23,296L67.23,296L67.23,296z"/>
<path class="st1" d="M86.91,318.93c-0.19,0.03-0.39,0.05-0.58,0.05l0,0C86.52,318.98,86.72,318.96,86.91,318.93z"/>
<path class="st1" d="M39.94,264.03H39.7l0,0H39.94z"/>
<path class="st1" d="M40.07,264.04L40.07,264.04c0.45,0.09,0.87,0.28,1.24,0.55C40.94,264.32,40.52,264.13,40.07,264.04z"/>
<path class="st1" d="M38.06,264.48c-0.79,0.58-1.26,1.5-1.27,2.48l0,0C36.8,265.98,37.27,265.06,38.06,264.48z"/>
<path class="st1" d="M87.48,264.24c1.07,0.5,1.76,1.58,1.76,2.76l0,0C89.24,265.82,88.55,264.74,87.48,264.24z"/>
<path class="st1" d="M84.05,265.14L84.05,265.14l0.23-0.22L84.05,265.14z"/>
<path class="st1" d="M39.7,264.01L39.7,264.01z"/>
<polygon class="st1" points="83.46,275.04 83.46,275.04 78.96,280.85 78.96,280.85 "/>
<polygon class="st1" points="47.07,280.85 42.57,275.04 42.57,275.04 "/>
<path class="st1" d="M86.31,318.98"/>
<path class="st1" d="M40.07,264.04"/>
<polygon class="st1" points="40.07,264.04 40.07,264.04 40.07,264.04 "/>
<path class="st1" d="M90.57,260.83l-0.07-0.05c-0.05-0.04-0.11-0.07-0.17-0.1c-1.19-0.77-2.58-1.18-4-1.17
	c-2.15,0.07-4.18,1.01-5.63,2.6c-0.48,0.48-0.94,0.99-1.36,1.53v0.06l-12.35,16.15l0,0l-2.74,3.63l0,0l-1.23,1.62l-1.24-1.62
	c0.36-0.23,0.77-0.34,1.19-0.34h0.09c0.42,0,0.83,0.11,1.19,0.34l2.74-3.59c-1.15-0.82-2.52-1.26-3.93-1.25h-0.09
	c-1.41-0.01-2.78,0.43-3.93,1.25l-12.31-16.18v-0.06c-0.42-0.54-0.88-1.05-1.36-1.53l0,0c-1.46-1.62-3.51-2.57-5.68-2.64
	c-1.42-0.01-2.81,0.4-4,1.17c-0.06,0.03-0.12,0.06-0.17,0.1l-0.06,0.05c-2.01,1.41-3.2,3.71-3.2,6.17v49
	c-0.01,2.45,1.18,4.76,3.19,6.17l0.07,0.05l0.16,0.1c1.19,0.77,2.58,1.17,4,1.17c2.15-0.08,4.17-1.01,5.62-2.6
	c0.49-0.48,0.94-0.99,1.36-1.53v-0.06l12.31-16.15c1.15,0.82,2.52,1.26,3.93,1.25h0.09c1.41,0.01,2.78-0.43,3.93-1.25l12.38,16.16
	v0.06c0.42,0.54,0.88,1.05,1.36,1.53l0,0c1.46,1.6,3.51,2.55,5.68,2.61c1.42,0,2.81-0.4,4-1.17l0.16-0.1l0.07-0.05
	c2.01-1.41,3.2-3.72,3.19-6.17v-49C93.76,264.54,92.57,262.24,90.57,260.83z M47.07,271.57L47.07,271.57l-3.92-5.09L47.07,271.57z
	 M89.24,267v49.14c-0.01,0.75-0.31,1.47-0.85,2c-0.33,0.31-0.73,0.54-1.17,0.67c-0.27,0.1-0.55,0.15-0.84,0.16h-0.07h-0.22h-0.13
	h-0.22c-0.55-0.11-1.05-0.38-1.44-0.78c-0.09-0.09-0.18-0.19-0.26-0.3l-0.21-0.21c-0.36-0.34-0.69-0.7-1-1.09l-3.92-5.13l0,0
	l-6-7.89l-2.92-3.82l0,0l3.58-4.58l5.41,7l4.5,5.81l0,0v-32.94l-4.5,5.81l0,0l-5.41,7l-2.86,3.63l-3.5,4.51l0,0l3.5-4.51l0,0
	l-3.5,4.51l0,0l-2.3,3c-0.17,0.21-0.38,0.4-0.61,0.54l0,0c-0.36,0.23-0.77,0.34-1.19,0.34h-0.14c-0.53-0.02-1.04-0.21-1.47-0.52
	c-0.14-0.12-0.27-0.26-0.39-0.4l-2.29-3l0,0l-3.5-4.47l-2.84-3.68l0,0l-2.85,3.68l0,0l-2.56,3.3v-6.61l2.56,3.31l2.85-3.68
	l-0.64-0.82l-4.77-6.15l-4.5-5.79v32.91l0,0l4.5-5.81l5.41-7l3.52,4.54l0,0l-8.93,11.74l0,0l-3.92,5.14
	c-0.36,0.46-0.75,0.89-1.17,1.29l0,0l-0.23,0.22c-0.15,0.12-0.29,0.23-0.44,0.33c-0.19,0.14-0.4,0.26-0.62,0.36
	c-0.2,0.08-0.41,0.15-0.62,0.19h-0.13H39.7c-0.3,0-0.6-0.05-0.89-0.15l0,0h-0.12l-0.23-0.1c-0.14-0.06-0.27-0.13-0.4-0.22
	c-0.19-0.14-0.36-0.3-0.51-0.48c-0.14-0.2-0.27-0.39-0.41-0.59c-0.06-0.13-0.11-0.27-0.15-0.41c-0.04-0.08-0.08-0.17-0.1-0.26
	c0-0.12,0-0.24,0-0.36s-0.05-0.25-0.05-0.38l0,0v-49.14c-0.01-1.24,0.81-2.34,2-2.7c0.27-0.1,0.55-0.15,0.84-0.16h0.07h0.22h0.13
	c0.26,0.03,0.52,0.1,0.76,0.19c0.34,0.15,0.65,0.35,0.91,0.61c0.09,0.1,0.17,0.2,0.24,0.3h0.05c0.4,0.43,0.76,0.89,1.09,1.38
	l3.92,5.13L56,283.32l0,0l0.4,0.52l2.42,3.18l0,0l3.45,4.46l0,0l0.75,1l0.75-1l0,0l3.44-4.52l2.43-3.18l0.39-0.52l0,0l8.93-11.71
	l0,0l1.35-1.77l2.57-3.3c0.21-0.27,0.41-0.5,0.61-0.72s0.38-0.4,0.56-0.57l0,0c0.07-0.11,0.16-0.21,0.25-0.3
	c0.39-0.39,0.89-0.66,1.44-0.77c0.07,0,0.15,0,0.22,0h0.13h0.22h0.07c0.29,0.01,0.57,0.06,0.84,0.16c0.44,0.13,0.84,0.36,1.17,0.67
	c0.54,0.53,0.84,1.25,0.85,2L89.24,267z M76.4,291.48l2.56-3.31v6.61L76.4,291.48z"/>
<path class="st0" d="M61.78,283.48c0.27-0.17,0.57-0.27,0.88-0.32c0.4-0.05,0.82-0.01,1.2,0.13c0.14,0.05,0.27,0.11,0.39,0.19
	l-1.23,1.62L61.78,283.48"/>
</svg>
